<svg xmlns="http://www.w3.org/2000/svg" data-name="Layer 1" viewBox="0 0 125 125" id="selection"><rect width="7.265" height="9.884" x="54.684" y="67.471" fill="#f7be56"></rect><path fill="#c4c4c6" d="M70.39436,79.73163a7.48861,7.48861,0,0,0-1.94477-1.532l-4.67905-2.56385-.765-.41952-.44642.08754-.00021.00167-4.24275.83941-4.2381-.83844V75.306l-.45088-.08977-.75373.41279-4.69263,2.57058A7.4795,7.4795,0,0,0,44.298,84.754v8.82691a2.66008,2.66008,0,0,0,2.66,2.66011H69.67457a2.6601,2.6601,0,0,0,2.66011-2.66011V84.754A7.46584,7.46584,0,0,0,70.39436,79.73163Z"></path><polygon fill="#27a2db" points="60.266 77.857 59.292 76.171 58.316 76.145 57.345 76.171 56.371 77.857 57.326 79.51 56.355 93.81 58.316 95.939 60.266 93.706 59.311 79.511 60.266 77.857"></polygon><polygon fill="#ebf0f3" points="61.949 73.362 58.316 76.145 61.335 80.041 63.005 75.217 61.949 73.362"></polygon><polygon fill="#ebf0f3" points="54.684 73.362 58.316 76.145 55.297 80.041 53.627 75.217 54.684 73.362"></polygon><ellipse cx="63.769" cy="65.761" fill="#fcd462" rx="1.435" ry=".688" transform="rotate(-85.898 63.77 65.761)"></ellipse><path fill="#fcd462" d="M52.642,64.50771c.42223-.02162.81228.67385.8712,1.55337s-.23558,1.61-.65781,1.63164-.81228-.67386-.8712-1.55337c-.02105-.31414-.25278-.79578-.19394-1.04639A.86513.86513,0,0,1,52.642,64.50771Z"></path><path fill="#fcd462" d="M63.64489,67.29533l-.2141-6.31984-.74936-2.03771-4.37929-1.18127-4.3793,1.18127-.74935,2.03771-.21411,6.31984a5.02188,5.02188,0,0,0,.32116,2.65788,8.25076,8.25076,0,0,0,1.85555,2.38253,4.32635,4.32635,0,0,0,3.166,1.02623,4.32635,4.32635,0,0,0,3.166-1.02623,8.25093,8.25093,0,0,0,1.85555-2.38253A5.02194,5.02194,0,0,0,63.64489,67.29533Z"></path><path fill="#3a556a" d="M55.35982,58.78s.77482,2.81431,7.45769,2.32057l.25748,5.58071s.09685-1.82683.53269-1.62933.14528,1.53058-.24213,2.41931a1.9665,1.9665,0,0,0,.21493,1.75457A17.22525,17.22525,0,0,0,64.769,65.1674a11.62023,11.62023,0,0,0-.25651-5.84433c-.82325-2.32057-7.1187-7.40607-10.26643-2.76493a3.70285,3.70285,0,0,0-2.749,3.90053c0,3.35742.04136,6.53753,1.49415,8.61429l-.02576-1.95524s-1.39574-1.46371-.47563-2.05619.895,1.174.895,1.174l.32856-4.40066S55.45667,60.16243,55.35982,58.78Z"></path><polygon fill="#f7be56" points="39.32 84.595 35.715 85.805 32.389 84.595 32.389 75.165 39.32 75.165 39.32 84.595"></polygon><path fill="#d5d6db" d="M47.37758,86.86186a7.14476,7.14476,0,0,0-1.85535-1.46158l-4.46391-2.44594-.72974-.40021-.42583.08349c-.00832.06637-.01974.15307-.02939.22835l-4.13185,2.825-3.89814-2.80364c-.01056-.08235-.02284-.17559-.03179-.24755l-.43013-.08563-.719.39377-4.47678,2.45238a7.13545,7.13545,0,0,0-3.7043,6.25293v5.38518a2.81718,2.81718,0,0,0,2.81714,2.81714h21.113a2.81718,2.81718,0,0,0,2.81714-2.81714V91.65321A7.12264,7.12264,0,0,0,47.37758,86.86186Z"></path><polygon fill="#ebf0f3" points="39.32 80.785 36.467 84.711 38.735 87.157 40.328 82.555 39.32 80.785"></polygon><polygon fill="#ebf0f3" points="32.366 80.785 35.219 84.711 32.951 87.157 31.358 82.555 32.366 80.785"></polygon><ellipse cx="41.189" cy="73.558" fill="#fcd462" rx="1.369" ry=".657" transform="rotate(-80.702 41.19 73.558)"></ellipse><ellipse cx="30.626" cy="73.558" fill="#fcd462" rx=".657" ry="1.369" transform="rotate(-4.102 30.626 73.558)"></ellipse><path fill="#fcd462" d="M40.9385,74.99749l-.20426-6.0292-.7149-1.944-4.17789-1.12695L31.66356,67.0243l-.71489,1.944-.20426,6.0292a4.79094,4.79094,0,0,0,.30639,2.53564A7.87108,7.87108,0,0,0,32.821,79.80608a4.12734,4.12734,0,0,0,3.02044.979,4.12737,4.12737,0,0,0,3.02045-.979,7.87125,7.87125,0,0,0,1.77021-2.27295A4.79094,4.79094,0,0,0,40.9385,74.99749Z"></path><path fill="#ebf0f3" d="M35.19489,87.62779v8.8353H36.236v-8.8353c.13576-2.15976.89069-2.76984.89069-2.76984l-.43808-.47232-.93055,1.1112-.78254-1.1112-.67136.47232S35.05912,85.468,35.19489,87.62779Z"></path><path fill="#3a556a" d="M41.91287,67.06923c-.78536-2.21384-6.79134-7.06547-9.79427-2.63775A3.53253,3.53253,0,0,0,29.496,68.15261c0,3.203-.15609,6.235,1.22983,8.21627l.171-1.86347s-1.33155-1.3964-.45373-1.96163c.58077-.374.766.23618.82537.69259h.06038l.28153-3.77085s1.66319-1.59552,1.57078-2.91441c0,0,.73919,2.68489,7.11473,2.21384l.21375,4.63317h.104c.07028-.46283.20184-.96967.43612-.86352.4158.18843.13864,1.46022-.231,2.30806a1.99909,1.99909,0,0,0,.11927,1.67389,14.98344,14.98344,0,0,0,1.21957-3.87174A11.086,11.086,0,0,0,41.91287,67.06923Z"></path><polygon fill="#f7be56" points="84.911 85.633 81.071 86.921 77.529 85.633 77.529 75.59 84.911 75.59 84.911 85.633"></polygon><path fill="#d5d6db" d="M93.49228,88.04756a7.61041,7.61041,0,0,0-1.97605-1.55671l-4.75444-2.60514-.77721-.42623-.45359.0889c-.00941.07522-.01977.157-.0308.24293L81.099,86.80042,76.94675,83.814c-.012-.09329-.02334-.18239-.03343-.26333l-.45815-.09119-.76579.41937-4.76812,2.612a7.6,7.6,0,0,0-3.94533,6.65983v4.477a2.22791,2.22791,0,0,0,2.2279,2.2279H93.23592a2.22791,2.22791,0,0,0,2.2279-2.2279v-4.477A7.5861,7.5861,0,0,0,93.49228,88.04756Z"></path><polygon fill="#ebf0f3" points="84.911 81.575 81.872 85.757 84.288 88.362 85.984 83.46 84.911 81.575"></polygon><polygon fill="#ebf0f3" points="77.504 81.575 80.543 85.757 78.127 88.362 76.43 83.46 77.504 81.575"></polygon><ellipse cx="86.901" cy="73.878" fill="#fcd462" rx="1.459" ry=".699" transform="rotate(-80.702 86.901 73.878)"></ellipse><ellipse cx="75.65" cy="73.878" fill="#fcd462" rx=".699" ry="1.459" transform="rotate(-4.102 75.65 73.878)"></ellipse><path fill="#fcd462" d="M86.63415,75.41109l-.21755-6.42155-.76141-2.07049-4.44977-1.20029-4.44977,1.20029-.76142,2.07049-.21755,6.42155a5.10267,5.10267,0,0,0,.32633,2.70065,8.38317,8.38317,0,0,0,1.88541,2.42087,5.48378,5.48378,0,0,0,6.434,0,8.38334,8.38334,0,0,0,1.88541-2.42087A5.10262,5.10262,0,0,0,86.63415,75.41109Z"></path><path fill="#ebf0f3" d="M80.51678,88.86333v9.41025h1.10884V88.86333c.14459-2.30032.94866-2.9501.94866-2.9501l-.4666-.50306-.9911,1.18352-.83347-1.18352-.715.50306S80.37218,86.563,80.51678,88.86333Z"></path><path fill="#3a556a" d="M75.8006,74.70505h.2993c.041-.41518.1442-1.44829.36932-3.64577.31644-3.08869,1.86341-3.95219,5.37928-2.5905.39175.1517,1.44152-.7971,2.81272-.43175s1.51184,0,1.2657,1.85984.62451,3.10829.37838,4.10466a2.65984,2.65984,0,0,0-.08649.70352h.61088a28.31916,28.31916,0,0,0,.9958-4.64211,11.09093,11.09093,0,0,0-.4071-4.73481c-.49221-1.29527-4.11837-2.9842-7.07172-2.61888s-5.226,2.66865-5.40181,4.56172A41.54835,41.54835,0,0,0,75.8006,74.70505Z"></path><path fill="#fcd462" d="M50.76742,51.99614,59.29122,37.769a6.85568,6.85568,0,0,1,6.19414-3.32508l18.43672-1.55138L94.12725,46.52177l-14.069,12.8515L67.07076,64.43h0a6.25331,6.25331,0,0,1,2.09751-8.89459c3.13487-1.79218,6.32244-3.70592,6.32244-3.70592l-.15-6.81946-9.75144-1.9629-4.596,6.40736a10.80684,10.80684,0,0,1-9.16046,4.50132h0A1.29492,1.29492,0,0,1,50.76742,51.99614Z"></path><rect width="11.818" height="23.275" x="85.978" y="26.558" fill="#27a2db" transform="rotate(-27.632 91.886 38.195)"></rect></svg>