<svg xmlns="http://www.w3.org/2000/svg" enable-background="new 0 0 3000 3000" viewBox="0 0 3000 3000" id="muslim-man-with-animals"><path fill="#f4f2ea" d="M2672.2 1832.8c-29.56-179.47-167.6-299.94-278.98-424.09-211.57-185.45 265.35-184.79 89.13-465.04-131.62-165.25-379.72-105.95-388.94-215.57 23.4-173.09-146.49-200.42-267.33-201.9-263.06-19.72-227.4-440.72-651.99-93.44-73.52 60.14-77.93 135.38-403.97 206.27-38.27 17.61-64.96 60.63-55.86 105.96 33.28 49.33 104.65 41.81 154.94 57.3 50.01 11.64 59.28 53.88 2.84 63.91-181.51 31.71-579.73 19.71-546.17 321.43 30.53 285.51 410.89 298.5 65.35 871.01-62.77 104.01 29.89 236.82 110.33 309.84 114.21 87.18 251.35 127.97 388.99 144.61 134.76 21.5 266.88 55.83 403.22 64.21 130.44 12.44 262.22 6.75 393.1 11.27 757.43 26.17 1025.8-432.73 985.34-755.77z"></path><path fill="#d8c899" d="m748.03 896.74 43.83 102.66 65.75-102.66z"></path><path fill="#c6b381" d="m868.84 899.09 54.01 97.7 55.01-108.8z"></path><path fill="#d8c899" d="m985.92 886.09 65.72 90.24 41.08-114.78z"></path><path fill="#c6b381" d="m1099.83 862.74 78.44 79.43 23.51-119.63z"></path><path fill="#d8c899" d="m1217.52 818.42 87.55 69.24 8.72-121.6z"></path><path fill="#c6b381" d="m1323.22 762.91 96.59 55.96-8.84-121.59z"></path><path fill="#d8c899" d="m1412.4 693.59 105.45 36.61-31.75-117.7z"></path><path fill="#c6b381" d="M807.02 901.41c-65.24 0-107.01-5.36-107.79-5.46l.71-5.34c1.47.19 149.39 19.16 325.16-15 161.99-31.48 381.5-115.84 507.29-338.93l4.69 2.64c-126.83 224.94-347.94 309.93-511.11 341.61-83.41 16.19-160.58 20.48-218.95 20.48z"></path><path fill="#d8c899" d="m2422.94 1179.6-43.83 102.67-65.75-102.67z"></path><path fill="#c6b381" d="m2302.13 1181.96-54.01 97.69-55.01-108.8z"></path><path fill="#d8c899" d="m2185.04 1168.96-65.71 90.23-41.08-114.78z"></path><path fill="#c6b381" d="m2071.14 1145.6-78.44 79.43-23.51-119.62z"></path><path fill="#d8c899" d="m1953.45 1101.28-87.56 69.25-8.71-121.6z"></path><path fill="#c6b381" d="m1847.75 1045.77-96.59 55.96 8.84-121.59z"></path><path fill="#d8c899" d="m1758.57 976.46-105.45 36.6 31.75-117.7z"></path><path fill="#c6b381" d="M2363.95 1184.28c65.24 0 107.01-5.36 107.79-5.46l-.71-5.34c-1.47.19-149.38 19.16-325.16-15-161.99-31.48-381.5-115.84-507.29-338.93l-4.69 2.64c126.83 224.94 347.94 309.93 511.11 341.61 83.41 16.19 160.58 20.48 218.95 20.48z"></path><path fill="#8c7750" d="M2257.51 2509.38c-119.24-9.44-258.67-16.71-411.45-21.16-109.39-3.1-225.61-4.79-346.11-4.79-177.51 0-345.82 3.75-496.67 10.35-94.22 4.1-181.31 9.39-259.94 15.59H323.87v84.43c0 49.56 349.43 91.48 830.07 105.46 109.39 3.1 225.61 4.79 346.01 4.79 64.32 0 127.42-.51 188.9-1.42 559.86-8.54 987.28-54.08 987.28-108.82v-84.43h-418.62z"></path><path fill="#d8c899" d="M2676.13 2509.38c0 54.73-427.42 100.28-987.28 108.82-61.48.91-124.57 1.42-188.9 1.42-120.4 0-236.62-1.68-346.01-4.79-480.64-13.97-830.07-55.9-830.07-105.46 0-44.25 278.08-82.55 679.41-100.02 150.85-6.6 319.16-10.35 496.68-10.35 120.49 0 236.71 1.68 346.11 4.79 480.73 13.98 830.06 55.91 830.06 105.59z"></path><path fill="#4d463c" d="M490.2 1917.11c-38.13 18.44-94.38 6.01-102.88 63.37-10.39 70.15 14.29 97.43-15.59 113.02-29.88 15.59 61.06 14.29 89.64-51.96 23.66-54.85 32.36-82.65 45.17-101.53-6.9-9.03-8.95-14.3-16.34-22.9z"></path><path d="M476.31 1941.44c-3.76 5.42-6.74 11.23-8.52 17.6-1.75 6.24-1.48 12.87-1.43 19.28.07 10.56-.28 22-8.61 29.66-6.24 5.73-14.7 6.69-22.76 7.41-7.77.69-15.72 1.62-18.29 10.18-2.41 8.05-2.46 16.62-4.57 24.74-1.52 5.83-4.73 10.61-9.03 14.54-.49 8.27-2.79 15.1-8.94 20.86-22.38 20.95 45.19-2.29 69.02-57.53 14.01-32.48 21.73-53.58 28.85-68.72 5.14-10.94 3.71-23.78-3.53-33.33-4.2 5-8.46 9.94-12.19 15.31z" opacity=".2"></path><path fill="#f5efd2" d="M664.03 1382.9s-40.27-19.49-96.13 0c-55.86 19.49-141.6 44.17-106.52 216.95 35.07 172.78 80.54 255.92 35.07 310.48-3.8 4.56-7.65 8.34-11.53 11.51 6.15 7.33 11.89 15.01 17.68 22.65.12-.13.23-.26.35-.39 27.28-29.88 40.27-68.85 40.27-113.02s-83.9-209.16-28.31-305.29c55.59-96.12 149.12-142.89 149.12-142.89z"></path><path fill="#cec49b" d="M1357.02 1937.5s-21.08 255.18 0 329.79c25.29 89.51 24.16 156.99 52.48 151.39 28.32-5.6 33.57.24 33.57.24s55.09-19.52 47.37-29.05c-7.72-9.53-53.8-100.29-48.33-136.03 5.47-35.74 115.98-359.66 115.98-359.66l-201.07 43.32z"></path><path fill="#4d463c" d="M1534.66 2474.85c-6.09.67-12.5.82-16.89-.05 0 0 1.86 11.25-11.56 16.59-10.3 4.13-29.64 4.75-65.78-5.88-83.22-24.46-52.63-88.05-52.63-88.05l73.41-19.09s33.95-1.69 43.02 25.32c9.06 27.01 33.16 62.99 44.72 65.28 7.57 1.49-2.72 4.61-14.29 5.88z"></path><path d="M1548.94 2468.96c-3.84-.76-9.08-5.3-14.68-11.94-2.71-.66-5.41-1.27-8.08-1.69-5.8-.91-11.11-1.05-15.65 3.33-2.86 2.77-4.68 6.49-6.61 9.91-2.08 3.69-4.32 7.13-7.27 10.18-1.26 1.31-3.24.43-4.01-.86-2.93-4.93-8.75-6.6-14.06-7.52-6.2-1.08-12.52-1.38-18.69-2.7-5.21-1.11-10.31-2.9-14.4-6.43-4.96-4.29-10.1-8.28-15.27-12.32-9.61-7.51-20.87-16.74-22.54-29.71-1.44-11.17 8.38-17.06 14.77-24.49 2.03-2.37 3.8-4.97 5.4-7.69l-40.04 10.41s-30.59 63.59 52.63 88.05c36.15 10.63 55.48 10.02 65.78 5.88 13.42-5.34 11.56-16.59 11.56-16.59 4.39.87 10.81.72 16.9.05 11.55-1.25 21.84-4.37 14.26-5.87z" opacity=".2"></path><path d="M1517.77 2474.8s1.86 11.25-11.56 16.59c.98-3.12 2.84-7.1 6.28-9.52 6.26-4.48-8.35-10.97-10.72-18.64-2.4-7.68-21.03-28.78-21.03-28.78-2.56-6.82 14.45 5.86 20.46 16.37 6.04 10.49 9.69 13.3 21.69 17.79 6.19 2.31 9.78 4.58 11.78 6.25-6.09.66-12.51.81-16.9-.06z" opacity=".2"></path><path fill="#cec49b" d="M578.64 2136.94s76.35 104.32 102.08 177.46c29.84 84.8 28.27 124.06 54.97 113.07 26.7-10.99 32.98-6.28 32.98-6.28s50.25-29.84 40.83-37.69c-9.42-7.85-72.24-87.94-73.81-124.06-1.57-36.12 43.97-375.33 43.97-375.33l-201.02 252.83z"></path><path d="M809.5 2383.5c-9.42-7.85-72.24-87.94-73.81-124.06-1.57-36.12 43.97-375.33 43.97-375.33l-165.47 208.13c8.5-2.04 17.09-3.47 25.67-4.06 14.74-1.01 30.07.35 43.64 6.6 13.68 6.3 24.27 17.26 30.56 30.91 8.37 18.17 10.5 39.42 2.7 58.11-7.73 18.51-23.11 35.6-22.77 56.6.32 19.89 12.18 37.71 19.5 55.57 3.64 8.89 6.56 18.2 6.82 27.88.14 5.13-.47 10.16-2.25 14.99-2.23 6.06-5.7 11.56-8.05 17.56-2.35 6.01-2.48 11.9-2.59 18.26-.09 5.33-.71 10.64-3.34 15.34 9.23 31.49 14.86 44.38 31.6 37.49 26.7-10.99 32.98-6.28 32.98-6.28s50.26-29.86 40.84-37.71z" opacity=".1"></path><path fill="#f5efd2" d="M1893.32 1796.03c-30.13 85.02-70.65 164.92-105.54 183.84-75.36 40.83-153.86 56.54-153.86 56.54s-.72 6.51-1.86 16.9c-.1.98-.26 1.96-.36 3-.1.88-.21 1.86-.31 2.84-.36 3.41-.77 7.13-1.19 11.01-.15 1.6-.31 3.21-.52 4.86-.16 1.6-.36 3.31-.52 4.96-.1.88-.21 1.7-.26 2.58-1.34 12.97-2.84 27.39-4.13 41.24-.41 4.14-.78 8.27-1.14 12.25-.36 3.88-.67 7.65-.98 11.32-.1 1.03-.21 2.07-.26 3.1-.57 7.13-1.09 13.64-1.39 19.23-.31 5.22-.46 9.56-.46 12.76 0 28.27-17.68 82.44-12.92 117.79 4.7 35.35 56.49 94.22 56.49 94.22s-67.45 59.49-73.34 40.62c-5.89-18.87-53.85-61.81-65.64-114.84-11.78-52.98 9.2-252.84-31.32-293.67 0 0-546.97 60.83-674.17 0-85.12-40.68-126.99-14.83-145.34 6.72h-.05c-.16.21-.31.41-.47.57-2.58 3.15-4.7 6.15-6.41 8.84-.41.57-.72 1.19-1.03 1.71-.98 1.65-1.81 3.1-2.43 4.39-1.45 2.95-2.12 4.81-2.12 4.81s-.46.57-1.34 1.55c-11.84 13.39-95.05 109.57-92.88 155.57 2.38 49.46 9.4 167.25 23.57 186.11 14.11 18.81 21.19 18.81 21.19 18.81l-74.06 30.91-1.71.72s-.67-3-1.86-8.42c-1.76-8.06-4.75-21.55-8.53-38.5-17.52-79.23-51.79-233.72-58.71-261.47-9.41-37.68 27.08-83.63 32.98-106 5.48-20.83 96.91-78.66 64.14-204.15-2.43-9.46-5.58-19.23-9.56-29.46-56.54-146.06-101.25-218.26-89.1-274.8 7.24-33.65 26.26-81.66 63.26-116.08 25.27-23.52 58.87-40.62 102.8-42.54 108.38-4.75 277.18 13.34 326.65 46.31 49.46 32.97 358.07 23.57 438.13 9.41 80.11-14.11 157.84-35.3 294.5 4.75 84.5 24.76 210.92 101.2 239.81 140.58 18.18 24.8-2.76 130.39-37.75 229.11z"></path><path d="M685.9 2005.62c-10-3.95-19.04-9.8-28.78-14.13-.28-.13-.4-.22-.46-.3-.18.1-.51.22-1.16.38-2.62.66-5.09 1.07-7.6 2.13-4.37 1.85-8.36 4.45-12.38 6.93-8.84 5.46-17.74 9.45-28.27 9.77-19.2.6-38.87-2.87-57.04-8.97-6.47-2.17-13.06-4.8-19.32-8.06-14.8 19.18-28.44 31.86-30.45 39.52-5.89 22.38-42.38 68.33-32.97 106 6.92 27.75 41.19 182.24 58.71 261.47 3.77 16.95 6.77 30.44 8.53 38.5 1.19 5.43 1.86 8.42 1.86 8.42l1.7-.72 74.07-30.91s-7.08 0-21.19-18.81c-14.16-18.86-21.19-136.65-23.57-186.11-2.17-46 81.04-142.18 92.88-155.57.88-.98 1.34-1.55 1.34-1.55s.67-1.86 2.12-4.81c.62-1.29 1.45-2.74 2.43-4.39.31-.52.62-1.14 1.03-1.71 1.7-2.69 3.82-5.69 6.41-8.84.15-.15.31-.36.47-.57h.05c6.87-8.07 17.03-16.73 31.52-22.29-6.82-1.02-13.49-2.84-19.93-5.38z" opacity=".1"></path><path fill="#c4ba91" d="M1339.82 1433.08c33.49 3.2 67.38.05 100.95.03 24.75-.01 49.27 1.98 73.7 5.94 19.71 3.19 40.2 7.61 57.58 17.84 14.16 8.34 27.2 23.43 22.58 40.94-3.84 14.56-18.49 25.26-17.69 41.19 1.03 20.45 21.23 35.22 38.64 41.87 36.59 13.98 79.12 7.32 114.04 26.34 17.54 9.55 31.35 27.47 31.01 48.08-.19 11.7-4.28 22.94-7.64 34.01-3.3 10.86-6.45 22.77-2.25 33.84 7.3 19.18 32.24 17.94 49.18 17.43 9.41-.28 18.93-1.08 28.34-.24 6.99.62 17.14 1.83 21.95 7.63 3.95 4.76 2.31 11.82 2.19 17.44-.21 9.42 1.64 22.01 9.91 27.88 7.72 5.47 18.57 2.63 26.79-.05 1.99-.65 3.95-1.38 5.91-2.11 33.95-97.29 53.92-199.84 36.02-224.24-28.89-39.38-155.31-115.82-239.81-140.58-136.65-40.06-214.39-18.86-294.5-4.75-18.19 3.22-48.21 6.19-84.28 8.47 9.15 1.01 18.25 2.17 27.38 3.04z" opacity=".25"></path><path fill="#c4ba91" d="M1893.32 1796.03c-30.13 85.02-70.65 164.92-105.54 183.84-75.36 40.83-153.86 56.54-153.86 56.54s-.72 6.51-1.86 16.9c-.1.93-.26 1.96-.36 3-.1.88-.21 1.86-.31 2.84-.36 3.41-.77 7.13-1.19 11.01-.15 1.6-.36 3.21-.52 4.86-.16 1.6-.36 3.31-.52 4.96-.1.88-.21 1.7-.26 2.58-1.39 13.02-2.84 27.39-4.13 41.24-.41 4.14-.78 8.27-1.14 12.25-.36 3.88-.67 7.65-.98 11.32-.1 1.03-.21 2.07-.26 3.1-.57 7.13-1.09 13.64-1.39 19.23-1.71-2.02-3.31-4.08-4.7-6.41-7.44-12.2-11.01-26.77-11.78-40.93-.52-9.36-.26-18.76-.62-28.12-.36-10.49-.88-21.04-1.24-31.53-.72-19.33-2.22-39.49 1.91-58.51 4.19-19.54 12.46-37.94 19.23-56.65 3.67-10.03 6.93-20.16 9.1-30.65 2.38-11.73 3.51-23.77 4.65-35.66 1.96-21.29 3.25-42.64 5.94-63.88 3.67 11.47 6.56 23.21 10.03 34.68 5.53 18.4 11.52 36.9 20.31 54.01 7.13 14.01 16.69 28.63 31.27 35.71 15.71 7.65 33.39 2.07 46.77-7.7 20.99-15.3 27.65-41.55 38.25-63.88 5.53-11.73 12.97-22.84 22.84-31.32 10.34-8.84 22.59-15.09 34.84-20.78 12.25-5.74 24.86-10.8 36.85-17.11 2.94-1.53 5.83-3.18 8.67-4.94z" opacity=".75"></path><path fill="#4d463c" d="M1736.43 2462.22c-5.84 1.84-12.11 3.23-16.58 3.23 0 0 4 10.67-8.13 18.52-9.3 6.05-28.15 10.41-65.68 7-86.38-7.84-68.71-76.16-68.71-76.16l68.31-32.98s32.98-8.25 47.11 16.49c14.13 24.73 44.76 55.36 56.53 55.36 7.73-.01-1.76 5.05-12.85 8.54z"></path><path d="M1749.29 2453.67c-2.8 0-6.7-1.78-11.17-4.76-8.59-.38-17.44-2.37-26.01-1.2-.07 6.73.95 14.16-4.76 19-2.94 2.49-6.84 2.85-10.53 3.15-4.2.34-7.93 1.43-11.93 2.71-7.29 2.34-14.62 4.75-22.21 5.92-6.78 1.05-15.73 1.66-21.73-2.38-2.56-1.72-3.66-4.09-4.85-6.83-1.23-2.85-3.01-5.21-4.99-7.58-4.08-4.9-8.73-9.54-11.72-15.24-2.8-5.33-2.97-11.07 1.01-15.82 2.58-3.09 5.79-5.3 8.91-7.78 3.61-2.86 6.22-6.51 8.74-10.33 5.17-7.85 9.48-16.55 11-25.9.3-1.84.42-3.68.54-5.52-2.45.35-3.98.71-3.98.71l-68.31 32.98s-17.67 68.31 68.71 76.16c37.53 3.41 56.37-.94 65.67-7 12.13-7.84 8.13-18.52 8.13-18.52 4.48 0 10.74-1.39 16.58-3.23 11.13-3.48 20.63-8.54 12.9-8.54z" opacity=".2"></path><path d="M1719.84 2465.44s4 10.67-8.13 18.52c.35-3.25 1.41-7.52 4.31-10.55 5.27-5.61-10.32-9.14-14.13-16.21-3.84-7.07-26.22-24.15-26.22-24.15-3.84-6.2 15.31 2.94 23.25 12.08 7.96 9.12 12.08 11.17 24.73 13.24 6.53 1.06 10.48 2.59 12.77 3.84-5.84 1.84-12.1 3.23-16.58 3.23z" opacity=".2"></path><path fill="#4d463c" d="M694.66 2488.71c-5.84 1.84-12.11 3.23-16.58 3.23 0 0 4 10.67-8.13 18.52-9.3 6.05-28.15 10.41-65.67 6.99-86.38-7.84-68.71-76.16-68.71-76.16l68.31-32.98s32.98-8.24 47.11 16.49c14.13 24.73 44.76 55.36 56.53 55.36 7.73.01-1.77 5.07-12.86 8.55z"></path><path d="M704.13 2485.18c-15.76 2.08-32.86-1.94-47.9-6.33 1.81 6.44 1.99 13.35-1.35 19.37-4.04 7.28-11.8 10.22-19.69 11.09-23.36 2.57-56.59-6.76-60.53-33.88-1.04-7.15-.08-14.83 3.27-21.25 3.71-7.11 9.67-12.6 14.68-18.77 2.5-3.08 4.83-6.36 6.36-10.04 1.94-4.68 2.36-9.96 2.36-14.98 0-.27-.05-.54-.05-.82l-65.71 31.73s-17.67 68.31 68.72 76.16c37.52 3.42 56.37-.94 65.67-6.99 12.13-7.85 8.13-18.52 8.13-18.52 4.48 0 10.74-1.39 16.58-3.23 3.46-1.1 6.78-2.34 9.46-3.54z" opacity=".2"></path><path d="M678.08 2491.94s4 10.67-8.13 18.52c.35-3.25 1.41-7.52 4.31-10.55 5.28-5.61-10.32-9.14-14.13-16.21-3.84-7.07-26.22-24.15-26.22-24.15-3.84-6.19 15.31 2.95 23.25 12.08 7.96 9.12 12.08 11.17 24.73 13.24 6.53 1.06 10.48 2.59 12.77 3.84-5.84 1.84-12.11 3.23-16.58 3.23z" opacity=".2"></path><path fill="#4d463c" d="M870.92 2455.17c-5.84 1.84-12.11 3.23-16.58 3.23 0 0 4 10.67-8.13 18.51-9.3 6.06-28.15 10.41-65.67 7-86.38-7.84-68.71-76.16-68.71-76.16l68.31-32.98s32.98-8.25 47.11 16.49c14.13 24.73 44.76 55.36 56.54 55.36 7.72 0-1.78 5.07-12.87 8.55z"></path><path d="M883.78 2446.62c-4.88 0-12.99-5.29-21.82-13.19-4.94 2.22-10.03 3.84-15.41 3.56-17.38-.9-26.79-19.16-42.82-22.53 1.71 9.38 1.45 20.01-5.96 26.85-6.08 5.62-15.1 6.53-22.98 5.69-9.82-1.06-19.31-4.7-27.86-9.53-12.05-6.8-25.9-18.78-27.88-33.2l-7.22 3.49s-17.67 68.31 68.71 76.16c37.53 3.42 56.37-.94 65.67-7 12.13-7.84 8.13-18.51 8.13-18.51 4.48 0 10.74-1.39 16.58-3.23 11.1-3.49 20.59-8.56 12.86-8.56z" opacity=".2"></path><path d="M854.34 2458.4s4 10.67-8.13 18.51c.35-3.25 1.41-7.51 4.31-10.55 5.28-5.61-10.32-9.14-14.13-16.21-3.84-7.07-26.22-24.15-26.22-24.15-3.84-6.2 15.31 2.94 23.25 12.08 7.96 9.12 12.08 11.17 24.73 13.24 6.53 1.06 10.48 2.59 12.77 3.84-5.84 1.85-12.11 3.24-16.58 3.24z" opacity=".2"></path><path fill="#c4ba91" d="M623.02 1416.12s147.62 39.26 89.52 103.65c-58.11 64.39-166.47 183.74-166.47 183.74l124.06-106.79s-24.14 54.96-34.06 119.35c-9.91 64.39 21.49 116.21 21.49 116.21s-29.84-102.08 4.71-153.9c34.55-51.82 47.11-89.51 47.11-89.51s34.55 50.25 31.41 45.54c-3.14-4.71-23.56-69.1-12.56-81.66 10.99-12.56 153.9-40.83 146.05-39.26-7.85 1.57-131.92-7.85-131.92-7.85s-4.71-34.55 28.27-25.13c32.98 9.42 32.98-1.57 32.98-1.57s-18.85-9.42-54.97-23.56c-36.11-14.13-10.98-48.68-125.62-39.26z" opacity=".25"></path><path fill="#c4ba91" d="M1493.81 2026.61s-546.98 60.85-674.18 0c-127.21-60.85-157.83 27.04-157.83 27.04s-.47.54-1.37 1.55c19.62-39.32 41.15-86.76 49.89-120.84 17.74-69.11-10.53-120.42-10.53-120.42s56.54 64.38 54.96 136.37c0 0 23.11-34.79 24.9-66.22 0 0 19.08 63.08 6.52 74.74-12.58 11.64 86.36-46.74 130.34-64.66 43.98-17.93 210.43 92.01 353.35 81.01 142.91-10.99 196.62 13.34 223.95 51.43zM564.58 1828.77c-2.45-9.45-5.61-19.25-9.56-29.47-56.54-146.05-101.25-218.27-89.09-274.81 7.21-33.62 26.24-81.65 63.25-116.09 60.54-15.88 16.89 95.66 16.89 95.66s-62.99 40.05-42.97 114.25c20.02 74.18 62.85 178.3 61.48 210.46z" opacity=".75"></path><path fill="#ddd5b3" d="M1786.51 1436.44s-7.47-10.27-26.65-17.66c-19.18-7.4-83.67 53.23-83.78 124.17.01 0 60.19-91.48 110.43-106.51z"></path><path fill="#f4f1e4" d="M1676.09 1542.95c32.98-104.98 110.42-106.51 110.42-106.51-57.68 106.07-110.42 106.51-110.42 106.51z"></path><path fill="#edcc98" d="M1784.26 1438.55c-55.28 88.44-106.5 103.14-106.5 103.14 45.35-92.62 106.5-103.14 106.5-103.14z"></path><path d="M1751.31 1468.6c-4.42-3.86-24.54 13.04-24.03 12.25 17.57-27.13 52.61-38.2 52.61-38.2-18.79 28.27-37.24 46.2-37.24 46.2s13.09-16.39 8.66-20.25z" opacity=".1"></path><path fill="#ddd5b3" d="M1987.91 1414.84s3.28-10.8 17.23-22.59c13.94-11.8 85.75 20.32 106.51 79.84-.01 0-77.19-59.27-123.74-57.25z"></path><path fill="#f4f1e4" d="M2111.64 1472.09c-58.27-78.53-123.73-57.25-123.73-57.25 79.32 72.25 123.73 57.25 123.73 57.25z"></path><path fill="#edcc98" d="M1990.41 1415.95c72.18 58.15 119.45 55.57 119.45 55.57-65.04-64.55-119.45-55.57-119.45-55.57z"></path><path d="M2026.83 1431.59c2.59-4.53 24.4 3.8 23.75 3.28-22.65-17.66-55.3-16.75-55.3-16.75 24.01 18.26 44.72 27.94 44.72 27.94s-15.76-9.94-13.17-14.47z" opacity=".1"></path><path fill="#c4ba91" d="M2019.16 1541.58c-3.13 19.43-30.5 99.87-37.67 120.83-.77 2.07-1.24 3.61-1.51 4.38-.09.26-.19.46-.17.58l-.05.07-123.94 16.52s-61.66-90.48-71-111.14c-7.68-17-30.48-91.56-24.01-152.91 1.38-13.17 4.08-25.71 8.55-36.95 22.3-55.65 87.21-48.36 103.32-45.65.58-.26 1.22-.53 1.91-.87l.06-.01c.69-.34 1.52-.63 2.39-1 .58-.26 1.16-.52 1.81-.73 1.4-.62 2.92-1.19 4.62-1.78.53-.19 1.12-.4 1.71-.6.76-.29 1.53-.51 2.35-.81 1.36-.43 2.78-.86 4.26-1.31.83-.23 1.66-.47 2.55-.71.77-.23 1.6-.46 2.5-.64 2.38-.63 4.95-1.21 7.53-1.68.96-.19 1.92-.38 2.89-.51 24.27-3.97 55.2-1.39 77.09 27.63 1.5 2.02 2.95 4.16 4.35 6.31.06-.01.06-.01.01.06 1.46 2.14 2.8 4.37 4.02 6.6 1.29 2.29 2.53 4.65 3.71 7.07.09.23.24.4.33.63 28.17 58.1 25.6 146.81 22.39 166.62z"></path><path fill="#f5efd2" d="M1999.82 1381.71c6.77 46.53-9.32 62.45-44.65 86.99-19.78 25.1 14.93 52.41 7.69 78.85-31.68 38.26-9.82 81.56 18.63 114.86-.89 2.5-1.3 3.63-1.68 4.96.07.17-123.55 16.47-123.57 16.53 0 0-1.14-1.63-3.05-4.39 18.8-39.62 28.54-87.08-12.11-115.73-13.85-23.63 12.44-59.07-13.24-78.11-46.29-18.07-49.77-17.86-67.04-65.77.83-75.57 76.53-92.56 111.87-82.6 38.27-16.94 87.08-21.91 116.02 23.3.06-.01.06-.01.01.06 4.43 6.65 7.93 13.72 11.12 21.05z"></path><path fill="#68342d" d="M1869.1 1716.96s10.61 35.73 58.11 29.4c47.5-6.33 50.42-43.87 50.42-43.87l-108.53 14.47z"></path><path fill="#7e4b42" d="M1986.42 1638.41c-23.06-32.57-64.38 1.35-72.47 8.5-9.68-4.79-58.44-26.7-72.16 10.78-15.25 41.66 19.37 82.11 77.8 70.86 1.81-.35 3.5-.75 5.08-1.21 1.65.03 3.39-.02 5.23-.16 59.34-4.45 82.15-52.56 56.52-88.77z"></path><path fill="#68342d" d="M1938.34 1671.76s13.53-.95 17.28-9.13c3.75-8.18 15.02-23.91 18.23-16.94 3.2 6.97-11.04 49.55-35.51 26.07zM1897.42 1677.21s-13.31 2.63-19.07-4.29c-5.76-6.91-20.76-19.14-22.03-11.57-1.26 7.57 23.64 44.94 41.1 15.86z"></path><path fill="#fff" d="M1953.1 1470.7s31.16-30.2 40.99-33.73c9.82-3.52 20.07 38.19-40.99 33.73z"></path><circle cx="1978.88" cy="1452.83" r="14.86" fill="#614720" transform="rotate(-7.591 1979.413 1453.171)"></circle><path fill="#614720" d="M1947.56 1480.47s-14.13-13.44 2.4-33.26c5.84-7.01 62.94-21.28 47.88-11.91-15.05 9.38-50.28 45.17-50.28 45.17z"></path><path fill="#fff" d="M1826.78 1487.54s-37.98-20.98-48.39-21.81c-10.41-.83-9.36 42.11 48.39 21.81z"></path><circle cx="1797.22" cy="1477.04" r="14.86" fill="#614720"></circle><path fill="#614720" d="M1834.69 1495.52s10.11-16.67-11.03-31.47c-7.47-5.23-66.32-4.05-49.33 1.05 16.98 5.1 60.36 30.42 60.36 30.42z"></path><path fill="#7e4b42" d="M1769.97 1430.7s-45.13 62.13-82.59 42.97c-63.71-32.6-61.18-119.65-3.76-175.38 10.38-10.08 22.01-38.73 34.02-30.28 0 0-67.59 134.29-11.44 130.7 34.15-2.18 60.9-13.62 60.9-13.62l2.87 45.61z"></path><path fill="#f4f1e4" d="M1767.66 1431.68c-6.33.57-10.68 5.54-14.61 10.02-3.98 4.54-7.98 8.54-13.18 11.7-5.36 3.26-11.42 6.35-17.35 8.4-5.18 1.8-11.03 1.63-16.45 1.63-5.68 0-11.49-.66-16.74-2.95-5.23-2.28-9.5-6.01-13.01-10.46-2.37-2.99-4.98-5.32-8.28-7.26-4.59-2.7-12.4-5.67-15.04-.59 7.81 12.81 19.2 23.71 34.4 31.49 34.69 17.75 75.94-34.21 81.84-41.98-.53 0-1.03-.05-1.58 0z" opacity=".25"></path><path fill="#6d3b35" d="M1731.79 1408.96s-8.56 27.51-3.32 41.34c.01-.01-15.68-14.79 3.32-41.34zM1683.81 1403.31s-17.89 12.72-21.1 23.52c0 0-2.68-16.21 21.1-23.52zM1680.24 1390.71s-21.92-1.18-31.15 5.28c0 0 7.99-14.35 31.15-5.28zM1680.86 1377.18s-20.53-7.77-31.29-4.41c0-.01 11.96-11.27 31.29 4.41zM1682.64 1358.56s-20.53-7.77-31.29-4.41c0 0 11.96-11.26 31.29 4.41zM1687.3 1336.42s-17.8-6.74-27.12-3.83c0 .01 10.37-9.75 27.12 3.83zM1692.27 1318.69s-12.74-5.35-19.86-1.84c-.01 0 8.38-10.3 19.86 1.84zM1700.88 1301.9s-8.79-5.38-14.45-3.59c0 0 7.35-6.65 14.45 3.59zM1708.56 1284.67s-5.66-3.46-9.29-2.31c0 0 4.72-4.28 9.29 2.31zM1695.34 1409.7s-11.89 26.24-8.39 40.61c0 0-13.75-16.61 8.39-40.61zM1714.77 1408.09s-10.46 33.6-4.05 50.49c0 0-19.17-18.06 4.05-50.49z"></path><path fill="#7e4b42" d="M1993.49 1400.9s59.83 48.14 90.96 19.83c52.95-48.15 27.7-131.5-42.31-170.24-12.66-7.01-31.39-31.61-40.77-20.32 0 0 100.41 111.89 45.28 123.14-33.53 6.84-62.35 2.81-62.35 2.81l9.19 44.78z"></path><path fill="#f4f1e4" d="M1995.98 1401.24c6.26-1.1 11.75 2.55 16.73 5.85 5.03 3.34 9.94 6.15 15.79 7.84 6.02 1.74 12.69 3.13 18.95 3.57 5.47.38 11.07-1.32 16.31-2.74 5.49-1.49 10.91-3.64 15.38-7.23 4.45-3.57 7.59-8.29 9.82-13.5 1.5-3.51 3.41-6.44 6.09-9.18 3.72-3.81 10.48-8.72 14.36-4.5-4.18 14.41-12.32 27.92-24.95 39.4-28.83 26.22-82.25-13.12-89.98-19.07.48-.16.95-.34 1.5-.44z" opacity=".25"></path><path fill="#6d3b35" d="M2024.64 1369.92s15.47 24.31 14.03 39.02c0 0 11.27-18.37-14.03-39.02zM2069.47 1351.9s20.6 7.59 26.52 17.18c0-.01-1.65-16.35-26.52-17.18zM2069.61 1338.81s20.85-6.88 31.45-3.06c0-.01-11.47-11.77-31.45 3.06zM2065.47 1325.91s17.78-12.88 29.04-12.46c0 0-14.5-7.73-29.04 12.46zM2058.88 1308.41s17.78-12.88 29.04-12.46c0 0-14.49-7.73-29.04 12.46zM2048.58 1288.26s15.41-11.16 25.17-10.8c0 .01-12.56-6.7-25.17 10.8zM2039.14 1272.45s10.89-8.5 18.69-6.98c0 0-10.79-7.74-18.69 6.98zM2026.43 1258.5s7.08-7.49 13-7.25c0 .01-8.83-4.49-13 7.25zM2014.51 1243.88s4.55-4.82 8.36-4.66c0 0-5.68-2.89-8.36 4.66zM2060.01 1361.09s18.35 22.21 18.74 36.99c0 0 8.91-19.63-18.74-36.99zM2040.84 1364.62s18.9 29.69 17.14 47.67c0 0 13.76-22.45-17.14-47.67z"></path><path fill="#7a633f" d="M1793.47 2458.33s.61.53 1.64 1.32c5.84 4.49 25.58 18.03 27.24-2.15 1.97-23.66.24-21.88 6.86-36.09 0 0 1.44-33.22 3.44-54.28 1.03-10.7 31.93-78.98 52.04-100 14.14-14.75 22.23-16.25 13.86-26.1-15.83-18.59-68.84-84.96-71.14-64.85 0 0-8.5 112.03-21.01 153.88 10.87 43.63-12.93 128.27-12.93 128.27z"></path><path d="M1898.55 2241.03c-15.83-18.59-68.84-84.96-71.14-64.85 0 0-1.98 26.1-5.44 57.79 4.47 6.86 9.11 13.62 12.76 20.97 2.52 5.07 4.55 10.45 5.53 16.04 1.03 5.9.49 11.77-.13 17.68-1.24 11.78-3.16 23.49-5.4 35.12-1.09 5.69-2.14 11.43-3.58 17.04-1.32 5.15-3.14 10.16-5.03 15.13-3.97 10.4-7.9 20.69-8.67 31.91-.72 10.48 1.14 20.97 2.22 31.37.88 8.5 2.35 18.72-1.41 26.75-3.09 6.6-8.8 11.59-14.88 15.39-1.05.65-2.15 1.21-3.24 1.8 8.1 5.1 20.9 10.42 22.22-5.66 1.97-23.66.24-21.88 6.86-36.09 0 0 1.44-33.22 3.44-54.28 1.03-10.7 31.93-78.98 52.04-100 14.13-14.75 22.21-16.26 13.85-26.11z" opacity=".1"></path><path fill="#7e4b42" d="M1792.86 2486.3c-.38.8-4.89 9.38-1.79 11.68 3.26 2.39 29.53-3.99 34.53-14.51 5-10.48-2.86-24.81-2.86-24.81s-23.04 1.66-29.1-1.9c0 0-5.18 15.73-9.39 20.43-3.99 4.38-6.19 11.1-6.45 11.95-.04.04-.05.08-.05.08s7.39 6.4 15.11-2.92z"></path><path fill="#edcc98" d="M1792.9 2486.28s1.24-10.05 1.03-15.79c0 0-7.72 15.43-11.41 17.46-3.69 2.02 2.6 5.02 10.38-1.67z" opacity=".15"></path><path fill="#6d2c0b" d="M1777.8 2489.14c.72-1.02 7.8-11.16 10.32-13.92 2.66-2.91 3.22-14.75 14.02-12.73 10.76 2.02 20.6-3.83 20.6-3.83s-23.04 1.66-29.1-1.9c0 0-5.18 15.73-9.39 20.43-3.99 4.39-6.19 11.11-6.45 11.95z" opacity=".72"></path><path fill="#7a633f" d="M2107.13 2428s.59.55 1.6 1.37c5.7 4.66 25.05 18.76 27.29-1.37 2.65-23.6.87-21.86 7.9-35.87 0 0-8.76-20.99-6.16-41.99 2.65-21.04-3.47-82.56 38.52-124.01 14.56-14.33 13.24-27.7 5.16-37.79-15.29-19.03-54.82-26.34-57.69-6.3v172.43l-16.62 73.53z"></path><path d="M2108.73 2429.37c5.7 4.66 25.05 18.76 27.29-1.37 2.65-23.6.87-21.86 7.9-35.87 0 0-8.76-20.99-6.16-41.99 2.65-21.04-3.47-82.56 38.52-124.01 14.56-14.33 13.24-27.7 5.16-37.79-17.71-14.29-49.06-18.03-51.62-.27 0 0 6.44 129.85 0 172.48-2.38 15.65-16.34 55.5-21.09 68.82z" opacity=".1"></path><path fill="#7e4b42" d="M2105.72 2455.95c-.4.79-5.15 9.24-2.12 11.62 3.19 2.48 29.63-3.14 34.93-13.52 5.3-10.33-2.14-24.88-2.14-24.88s-23.08 1-29.03-2.74c0 0-5.63 15.58-9.97 20.15-4.11 4.27-6.51 10.92-6.79 11.76-.05.04-.05.08-.05.08s7.19 6.62 15.17-2.47z"></path><path fill="#edcc98" d="M2105.76 2455.92s1.53-10.01 1.48-15.76c0 0-8.16 15.2-11.91 17.12-3.74 1.93 2.46 5.11 10.43-1.36z" opacity=".15"></path><path fill="#6d2c0b" d="M2090.58 2458.35c.75-1 8.12-10.93 10.72-13.61 2.74-2.83 3.65-14.65 14.39-12.32 10.7 2.33 20.7-3.24 20.7-3.24s-23.08 1-29.03-2.74c0 0-5.63 15.58-9.97 20.15-4.12 4.27-6.52 10.92-6.81 11.76z" opacity=".72"></path><path fill="#7a633f" d="M2228.29 1974.07c-1.2 3.27-2.41 7.1-3.68 11.56 0 0 35.51 1.49 55.93 40.38 20.43 38.9 56.51 39.84 56.51 39.84s-27.72-18.78-32.26-39.77c-.6-2.77-.87-5.8-.98-8.97 5.11 4.44 10.59 6.83 17.98 6.02 0 0-6.22.4-5.84-14.26.35-13.46-34.96-100.26-76.44-51.3-4.2 1.88-7.63 6.68-11.22 16.5z"></path><path fill="#c6be9d" d="M2224.61 1985.64s35.51 1.49 55.93 40.38c20.43 38.9 56.51 39.83 56.51 39.83s-27.72-18.77-32.26-39.77c-4.53-20.99 9.54-56.18-25.48-61.6-35.01-5.4-42.28-22.53-54.7 21.16z" opacity=".28"></path><path d="M2227.56 1973.3s12.53-14.16 32.06 3.73c19.52 17.89 23.84 35.81 39.96 34.06 0 0-4.79.31-4.49-10.98.28-11.29-32.01-89.61-67.53-26.81z" opacity=".1"></path><path fill="#edcc98" d="M2236.39 1982.6s25.68 2.25 45.93 31.77 36.58 39.82 36.58 39.82-27.56-22.56-26.8-36c.76-13.43-33.83-67.68-52.57-60.61-18.76 7.08-3.14 25.02-3.14 25.02z" opacity=".1"></path><path fill="#8c7750" d="M2205.44 1958.27c-36.74 39.66-304.61 35.6-362.66 0-9.11-5.58-24.79-91.53-30.16-104.6l-53.1 75.79c-.43 38.5-.16 83.88 2.19 122.46.87 13.83 1.96 26.79 3.42 38.25 2.6 20.54 7.67 38.34 14.33 53.86 20.13 47.15 54.77 73.21 78.46 92.29 20.49 16.52 27.66 53.36 28.48 84.07.46 16.57-.96 31.35-3.1 40.25-6.11 25.38 11.41 23.64 14.88 38.52 3.51 14.88-7.85 87.49-7.85 87.49 14.88 4.38 32.36-4.11 32.36-4.11s-16.61-122.77-15.75-144.68c.82-20.04 17.02-65.08 19.76-72.48.14-.46.27-.73.32-.91.09.05.23.09.32.09 2.69.69 15.29 3.2 67.14 12.05 72.98 12.41 158.56-16.8 167.32-19.9l.73-.23c3.47.5 6.62 2.88 9.45 6.57 0 0 .23.27.64.78.36.59.78 1.19 1.19 1.83.09.23.18.36.27.46 13.01 21.04 18.03 69.33 15.61 75.26-3.06 7.44-4.38 20.54 1.73 35.01 4.84 11.27-1.64 68.19-4.7 92.38-.82 6.71-1.42 10.91-1.42 10.91 12.69 8.31 35.87-3.93 35.87-3.93l-12.23-94.98s-4.57-85.17 21.13-163.12c6.21-18.85 14.15-37.29 24.37-53.95 52.56-85.81-12.21-245.09-49-205.43z"></path><path fill="#e28e42" d="m1927.1 2264.34.28.23c2.68.69 15.26 3.18 67.12 12.02 72.99 12.44 158.53-16.76 167.32-19.86l.74-.27s-77.12-45.17-153.27-30.86c-76.15 14.3-82.19 38.74-82.19 38.74zM1779.46 2144.02c20.16 47.16 54.78 73.2 78.49 92.31 0 0-14.96-86.15-39.47-111.52-21.67-22.45-39.92-13.43-39.02 19.21z"></path><path fill="#c6be9d" d="M2205.44 1958.27c-36.74 39.66-304.61 35.6-362.66 0-9.1-5.57-24.8-91.51-30.16-104.6l-31.76 75.79c.51 11.84 4.06 24.32 13.09 36.02 35.46 45.96 104.67 49.14 204.85 95.06 100.14 45.96 198.62 3.07 220.93-36.18 12.28-21.63 48.43 29.99 10.36 193.29 6.21-18.85 14.15-37.29 24.37-53.95 52.54-85.81-12.23-245.09-49.02-205.43z" opacity=".21"></path><path fill="#c6be9d" d="M2205.44 1958.27c-36.74 39.66-304.61 35.6-362.66 0-9.1-5.57-24.8-91.51-30.16-104.6l-23.37 75.79c1.25 10.24 6.31 20.61 18.67 28.81 37.75 25.01 61.2 14.24 139.43 42.63 78.27 28.34 101.73 83.11 172.16 33.23 70.42-49.89 99.54-29.49 85.93-75.86z" opacity=".28"></path><path fill="#db9967" d="M1761.72 2051.92c.87 13.83 1.96 26.79 3.42 38.25 2.6 20.54 7.67 38.34 14.33 53.86 20.13 47.15 54.77 73.21 78.46 92.29 20.49 16.52 27.66 53.36 28.48 84.07 0-1.96 25.61-40.35-5.98-146.01-31.54-105.7-61.53-176.77-104.56-139.61-5.43 4.69-10.08 10.49-14.15 17.15zM1926.72 2265.39c.14-.46.27-.73.32-.91.09.05.23.09.32.09 2.69.69 15.29 3.2 67.14 12.05 72.98 12.41 158.56-16.8 167.32-19.9l.73-.23c4.24.59 7.99 4.02 11.27 9.17-3.93-8.17-34.23-114.06-105.2-87.45-73.03 27.38-88.64 48.88-122.55 39.43-15.61-4.33-19.63 20.09-19.35 47.75z"></path><path fill="#edcc98" d="M2172.63 2263.83c.36.59.78 1.19 1.19 1.83.09.23.18.36.27.46 13.01 21.04 18.03 69.33 15.61 75.26-3.06 7.44-4.38 20.54 1.73 35.01 4.84 11.27-1.64 68.19-4.7 92.38l12.28.59s-.04 3.15 1.64-12.96c1.74-16.16 1.46-72.11-3.15-86.08-4.66-13.92 1.5-31.03 1.5-31.03-1.18-42.6-22.4-70.57-26.37-75.46z" opacity=".1"></path><path fill="#7e4b42" d="M2188.56 2497.42c-.37.91-4.75 10.77-1.14 13.1 3.79 2.42 32.5-6.57 37.29-18.62 4.79-12-4.98-27.34-4.98-27.34s-25.47 3.52-32.45 0c0 0-4.61 17.85-8.94 23.37-4.11 5.16-6.07 12.78-6.3 13.74-.04.04-.04.09-.04.09s8.66 6.57 16.56-4.34z"></path><path fill="#edcc98" d="M2188.6 2497.39s.65-11.25 0-17.61c0 0-7.45 17.69-11.41 20.21-3.95 2.52 3.25 5.39 11.41-2.6z" opacity=".15"></path><path fill="#6d2c0b" d="M2172.03 2501.67c.73-1.19 7.85-12.96 10.45-16.2 2.74-3.42 2.51-16.61 14.65-15.15 12.09 1.46 22.59-5.75 22.59-5.75s-25.47 3.52-32.45 0c0 0-4.61 17.85-8.94 23.37-4.1 5.15-6.07 12.77-6.3 13.73z" opacity=".72"></path><path fill="#7e4b42" d="M1891.85 2513.32c-.36.9-4.66 10.57-1.12 12.85 3.72 2.37 31.88-6.45 36.58-18.27 4.7-11.78-4.88-26.82-4.88-26.82s-24.98 3.45-31.83 0c0 0-4.52 17.51-8.78 22.92-4.03 5.06-5.95 12.54-6.18 13.48-.04.04-.04.09-.04.09s8.51 6.45 16.25-4.25z"></path><path fill="#edcc98" d="M1891.89 2513.29s.64-11.04 0-17.28c0 0-7.31 17.36-11.19 19.83-3.87 2.47 3.19 5.29 11.19-2.55z" opacity=".15"></path><path fill="#6d2c0b" d="M1875.64 2517.48c.72-1.16 7.7-12.71 10.25-15.89 2.69-3.36 2.46-16.3 14.37-14.86 11.87 1.43 22.16-5.64 22.16-5.64s-24.98 3.45-31.83 0c0 0-4.52 17.51-8.78 22.92-4.02 5.06-5.94 12.53-6.17 13.47z" opacity=".72"></path><path fill="#6d2c0b" d="M1864.88 2074.25s30.86 24.72 28.67 89.15c0 0 23.11-75.27-28.67-89.15zM2198.3 2251.02c5.2 5.06-45.75-80.14-32.71-131.19 0 0-59.77 41.21 32.71 131.19z" opacity=".3"></path><path fill="#8c7750" d="M1827.24 1815.38s58.74 20.31 63.41 54.26c4.67 33.95-11.25 58.83-11.25 58.83s-20.37-1.54-33.16-56.11c-12.78-54.57-27.5-50.32-27.5-50.32l8.5-6.66z"></path><path d="M1876.53 1910.71s-16.75-11.03-19.9-35.39c-3.14-24.36-18.86-48.81-18.86-48.81s39.68 19.97 41.11 40.77c1.43 20.8-2.35 43.43-2.35 43.43z" opacity=".1"></path><path d="M1873.97 1904.61s-13.43-11.23-11.09-25.8-2.54-31.34-2.54-31.34 19.46 18.27 16.74 30.5c-2.73 12.23-3.11 26.64-3.11 26.64z" opacity=".1"></path><path fill="#8c7750" d="M1736.23 1815.38s-58.74 20.31-63.41 54.26c-4.66 33.95 11.25 58.83 11.25 58.83s20.37-1.54 33.16-56.11c12.78-54.57 27.5-50.32 27.5-50.32l-8.5-6.66z"></path><path d="M1686.94 1910.71s16.75-11.03 19.9-35.39c3.14-24.36 18.85-48.81 18.85-48.81s-39.68 19.97-41.11 40.77c-1.42 20.8 2.36 43.43 2.36 43.43z" opacity=".1"></path><path d="M1689.49 1904.61s13.43-11.23 11.09-25.8 2.54-31.34 2.54-31.34-19.46 18.27-16.74 30.5c2.74 12.23 3.11 26.64 3.11 26.64z" opacity=".1"></path><path fill="#7a633f" d="M1810.58 1946.3h-61.4s-13.18 20.39-7.62 42.46c0 0 .06-4.94 2.27-10.72 0 0-1.85 11.31 2.87 18.02 0 0 1.4-2.9.43-6.64 0 0 2.61 1.61.95 10.99 0 0-2.85 10.14 3.87 14.29 0 0 2.49-13.53 3.32-5.8.83 7.73.69 13.53.69 13.53s3.73-2.53 4.14-9.81c0 0 5.39 14.42 3.73 19.92 0 0 6.08-4.61 4.84-11.3 0 0 4.01 14.51 5.25 8.92.05-.22.38-.85.89-1.8 2.41 5.3 5.51 12.38 6.54 15.76 0 0 .82-4.28 4.27-14.49.13.26.21.44.23.54 1.24 5.59 5.25-8.92 5.25-8.92-1.24 6.69 4.84 11.3 4.84 11.3-1.66-5.5 3.73-19.92 3.73-19.92.42 7.29 4.15 9.81 4.15 9.81s-.14-5.8.69-13.53c.83-7.73 3.32 5.8 3.32 5.8 6.72-4.14 3.87-14.29 3.87-14.29-1.66-9.38.95-10.99.95-10.99-.97 3.75.43 6.64.43 6.64 4.72-6.71 2.87-18.02 2.87-18.02 2.21 5.78 2.27 10.72 2.27 10.72 5.54-22.07-7.64-42.47-7.64-42.47z"></path><path d="M1798.08 1987.07c.94-1.27 2.26-2.16 3.63-2.9 1.4-.76 2.9-1.39 4.13-2.43 1.1-.93 1.68-2.11 2.03-3.48.77-2.96.59-6.19.24-9.19-.31-2.68-.65-5.7-2.42-7.87-1.6-1.97-4.07-2.7-6.52-2.87-2.78-.2-5.57.2-8.32.58-8.27 1.13-16.45 3.25-24.82 3.59-2.12.08-4.24.05-6.35-.17-2.12-.22-4.15-.7-6.22-1.22-1.17-.3-2.58-.36-3.61.37-.78.55-1.12 1.42-1.23 2.34 1.08 2.18 1.9 4.48 2.42 6.86.73 3.33.93 6.73 1.07 10.13.1 2.59.72 5.22 2.68 7.05 1.97 1.85 4.57 2.53 6.97 3.59 1.31.58 2.37 1.52 3.11 2.74.72 1.19 1.1 2.56 1.54 3.87.49 1.47 1.08 2.88 2.05 4.09 1.04 1.29 2.29 2.43 3.77 3.18 2.63 1.34 5.65 1.36 8.52 1.21 1.59-.09 3.19-.22 4.78-.28.93-.04 1.84-.09 2.76.07.96.16 1.9.45 2.87.56 1.41.15 3.01-.17 3.99-1.27.85-.94 1.14-2.26 1.27-3.48.34-3.34-.48-6.67-.16-10.01.19-1.82.74-3.59 1.82-5.06z" opacity=".1"></path><path fill="#db9967" d="M1842.07 1835.86c-11.07-47.93-63.15-28.62-63.15-28.62s-54.47-19.85-62.83 28.62c-9.34 54.17 14.86 69.23 17.5 102.49 1.85 23.36 14.63 30.52 31.79 33.51H1792.79c18.66-3.25 31.45-20.47 33.3-46.38 2.25-31.62 29.47-31.2 15.98-89.62z"></path><path d="M1767.62 1964.07c9.2.74 18.45-.38 27.44-2.31 4.94-1.06 10.12-2.61 13.92-6.09 4.08-3.74 5.91-10.03 5.1-15.46-.51-3.39-2.25-6.42-2.98-9.75-.8-3.67.05-7.87-1.75-11.27-1.18-2.23-2.78-4.1-3.16-6.68-.46-3.14.4-6.09 1.77-8.88 1.4-2.86 3.18-5.72 3.25-9 .07-3.06-1-6.05-2.27-8.79 26-.99 25.83-26.79 27.11-30.39.49-1.39-28.37-6.79-28.91-8.27-.4-1.09-1.74 5.65-2.92 5.52-.31.67-1.33 1.11-2.06.42-.21-.2-.44-.36-.67-.52-.17-.06-.31-.16-.43-.28-2.23-1.29-5.12-1.04-7.59-.58-1.48.28-2.93.66-4.37 1.06-1.75.48-3.57.71-5.36.98-3.83.57-7.67 1.01-11.54 1.24-3.62.22-7.28.01-10.89.38-1.43.15 3.37 7.95 2.37 9.17-24.1-28.36-41.29-10.16-41.26-9.13.63 20.59 33.17 32.76 31.67 36.26-1.27 2.96-2.2 6.05-2.57 9.25-.36 3.04-.26 6.1-.11 9.15.17 3.41.58 6.9.05 10.29-1.53 9.82-10.61 19.9-7.79 30.07 2.67 3.64 5.47 6.89 8.01 9.61 4.84 2.63 10.89 3.59 15.94 4z" opacity=".1"></path><path fill="#77433f" d="M1754.88 1969.96s5.26 25.94 23.83 25.24c18.58-.7 24.89-25.24 24.89-25.24h-48.72z"></path><path fill="#6b3832" d="M1795.13 1971.91c-.2.09-8.22 3.71-15.76 2.26v-.08c-.06.02-.12.03-.18.05-.06-.01-.12-.02-.19-.04v.08c-7.43 1.95-15.67-1.13-15.88-1.2 3.68 6.78 14.01 7.14 16.07 7.15v.01s.07 0 .19-.01h.18v-.01c2.07-.16 12.35-1.2 15.57-8.21z"></path><path fill="#fff" d="M1836.06 1855.45s-1.76 9.35-7.06 12.31c-2.12 1.19-12.87 3.71-12.9-.08 0-1.55 1.13-4.8 2.43-6.43 1.55-1.97 3.88-3.79 6.56-5.06.55-.28 1.08-.59 1.69-.72 6.95-1.54 9.08-.48 9.28-.02z"></path><path fill="#7e4b42" d="M1829 1861.3a4.94 4.94 0 0 1-4.93 4.93c-2.57 0-4.68-1.96-4.87-4.46 1.55-1.96 3.87-3.79 6.56-5.06a4.86 4.86 0 0 1 3.24 4.59z"></path><path fill="#fff" d="M1829.51 1858.67c0 .65-.52 1.17-1.17 1.17-.65 0-1.17-.52-1.17-1.17s.52-1.17 1.17-1.17c.65 0 1.17.52 1.17 1.17zM1823.47 1864.59a2.279 2.279 0 1 1-4.56 0c0-1.26 1.02-2.28 2.28-2.28a2.273 2.273 0 0 1 2.28 2.28zM1722.42 1855.45s1.76 9.35 7.06 12.31c2.12 1.19 12.87 3.71 12.9-.08 0-1.55-1.13-4.8-2.43-6.43-1.55-1.97-3.87-3.79-6.56-5.06-.55-.28-1.08-.59-1.69-.72-6.94-1.54-9.07-.48-9.28-.02z"></path><path fill="#7e4b42" d="M1729.49 1861.3a4.94 4.94 0 0 0 4.93 4.93c2.57 0 4.68-1.96 4.87-4.46-1.55-1.96-3.87-3.79-6.56-5.06a4.847 4.847 0 0 0-3.24 4.59z"></path><path fill="#fff" d="M1728.98 1858.67c0 .65.52 1.17 1.17 1.17s1.17-.52 1.17-1.17-.52-1.17-1.17-1.17-1.17.52-1.17 1.17zM1735.02 1864.59a2.279 2.279 0 1 0 4.56 0c0-1.26-1.02-2.28-2.28-2.28a2.273 2.273 0 0 0-2.28 2.28z"></path><path fill="#7e4b42" d="m1802.38 1934.49-7.11-70.32c4.49-5.54 12.95-14.36 20.84-13.61 0 0-4.35-13.1-23.54-13.1h-26.64c-19.19 0-23.54 13.1-23.54 13.1 7.89-.76 16.35 8.07 20.84 13.61l-7.11 70.32s-17.53 8.7-9.81 28.78c7.71 20.08 32.95 12.71 32.95 12.71s25.24 7.36 32.95-12.71c7.7-20.08-9.83-28.78-9.83-28.78z"></path><path d="M1792.56 1837.46h-26.64c-19.19 0-23.54 13.1-23.54 13.1.52-.05 1.04-.05 1.56-.02-.2-.97.83-2.06 1.76-1.27.89.76 1.81 1.58 2.77 2.38 2.38.99 4.7 2.56 6.84 4.34 1.14.42 2.33.69 3.58.71 3.74.08 7.48-1.16 11.22-1.37 2.68-.15 6.73-.09 8.05 2.82.47 1.04.26 2.22 1.63 2.45.92.16 1.9-.04 2.82-.08 1.55-.07 3.27.19 4.44 1.3 2.54 2.41 1.86 6.99 1.39 10.02-.35 2.27-.43 4.13 1.33 5.81 1.22 1.17 2.67 2.04 3.58 3.51 1.37 2.22.96 5.13 1.68 7.58.15.5.42 1.63.97 1.6.62-.03 1.42-1.32 1.72-1.89l-2.46-24.29c4.49-5.54 12.95-14.36 20.84-13.61 0 .01-4.34-13.09-23.54-13.09z" opacity=".1"></path><path fill="#f4f1e4" d="M1782.98 1925.87c-.71-4.52-.39-9.18-.19-13.73.18-4.19.57-8.72-.38-12.84-.54-2.31-1.6-4.69-2.95-6.64-.31-.45-1.18-1.86-1.84-1.86-.48 0-.73 1.05-.85 1.49-.95 3.33-.77 7.16-.73 10.59.04 3.89.26 7.77.38 11.66.23 7.29.29 14.95-2.32 21.87-1.18 3.12-2.99 5.58-5.55 7.72-2.47 2.06-5.33 3.78-7.25 6.41-3.46 4.72-3.31 12.48 3.07 14.57.93.3.92 1.32.42 1.89 9.61 5.29 24.21 6.19 31.11-3.09 2.37-3.18 3.23-7.02 1.62-10.75-1.5-3.48-4.6-5.82-6.9-8.74-4.26-5.42-6.57-11.79-7.64-18.55z" opacity=".25"></path><path fill="#6b3832" d="M1799.39 1959.04s-13.23 9.28-20.84 10.28c-7.64-.67-21.27-9.36-21.27-9.36-.59 6.28 7.42 9.24 16.17 12.85 2.57 1.06 5.49 3.27 5.49 3.27.85-1.12 2.34-2.33 4.86-3.5 8.58-3.98 16.45-7.29 15.59-13.54z"></path><path fill="#7e4b42" d="M1834.46 1815.36s15.83-35.41 36.34-29.84c34.88 9.48 42.7 52.77 20.12 86.29-4.08 6.06-11.35.4-18.8 6.18 0 0 24.57-61.08-2.81-53.46-16.65 4.64-28.69 13.07-28.69 13.07l-6.16-22.24z"></path><path fill="#f4f1e4" d="M1835.51 1814.64c3.07-.94 4.7-3.85 6.18-6.48 1.49-2.66 3.06-5.05 5.3-7.16 2.31-2.17 4.98-4.33 7.7-5.96 2.38-1.43 5.28-1.96 7.96-2.52 2.81-.59 5.75-.87 8.58-.28 2.82.58 5.32 1.98 7.52 3.81 1.48 1.23 3.01 2.11 4.85 2.73 2.55.86 6.72 1.51 7.49-1.28-5.2-5.52-11.96-9.72-20.28-11.98-19-5.16-33.97 24.82-36.08 29.27.26-.04.51-.07.78-.15z" opacity=".25"></path><path d="M1890.49 1852.87c-3.52-1.89-4.06-6.04-3.41-9.63.85-4.66 3.47-8.65 3.7-13.47.17-3.57-.14-8.95-3.33-11.27-1.84-1.33-4.22-2.08-6.35-2.8-2.32-.79-4.69-1.44-7.1-1.95-4.95-1.04-10.15-1.81-15.13-.57-4.43 1.1-8.59 3.11-12.99 4.34-2.98.83-6.31 1.52-9.33.47-.58-.2-1.08-.52-1.59-.83l5.66 20.44s12.03-8.44 28.69-13.07c27.38-7.62 2.81 53.46 2.81 53.46 7.45-5.78 14.72-.11 18.8-6.18 4.09-6.07 7.17-12.47 9.28-18.92-3.06 1.01-6.77 1.56-9.71-.02z" opacity=".1"></path><path fill="#7e4b42" d="M1883.37 1886.03s-9.8 3.71-11.11-6.13c-2.38-17.76 39.38-21.22 39.79-32.98 0 .01 16.82 4.23-28.68 39.11z"></path><path fill="#f4f1e4" d="M1875.69 1877.31c.91-4.18 4.72-6.67 8.35-8.38 5.1-2.41 11.23-2.48 16-5.6 2.02-1.32 3.55-3.27 5.25-4.95 1.68-1.67 3.4-2.76 5.59-3.61 2.61-1.01 3.6-2.46 3.83-5.3 0-.05 0-.1.01-.15-.81-1.92-2.67-2.4-2.67-2.4-.41 11.76-42.17 15.22-39.79 32.98.52 3.84 2.33 5.6 4.34 6.34-1.12-2.92-1.47-6.37-.91-8.93z" opacity=".25"></path><path fill="#6d3b35" d="M1855.6 1822.13s1.37-14.49-2.67-20.78c0 0 9.3 5.68 2.67 20.78zM1879.9 1819.93s7.52-8.15 7.98-13.82c0-.01 3.02 7.72-7.98 13.82zM1882.98 1825.78s10.96-1.7 14.85-5.85c0 0-2.46 7.92-14.85 5.85zM1884.08 1832.54s10.96 1.7 15.92-1.08c.01 0-4.73 6.81-15.92 1.08zM1883.45 1841.92s10.96 1.7 15.92-1.08c0 0-4.74 6.81-15.92 1.08zM1882.96 1853.04s9.5 1.48 13.8-.93c0 0-4.11 5.9-13.8.93zM1879.02 1868.99s5.08 8.16 9.71 9.85c0 .01-7.15.74-9.71-9.85zM1886.21 1865.51s4.07 6.55 7.79 7.9c.01.01-5.73.6-7.79-7.9zM1893.03 1862.52s3.08 4.95 5.89 5.98c.01 0-4.33.45-5.89-5.98zM1901.68 1858.73s1.95 3.14 3.74 3.79c-.01 0-2.76.29-3.74-3.79zM1873.54 1817.97s3.14-14.21-.08-20.95c0 0 8.52 6.78.08 20.95zM1864.1 1820.79s1.67-17.7-3.26-25.38c.01 0 11.36 6.93 3.26 25.38z"></path><path fill="#db9967" d="M1850.68 1835.58c.06-1.07-.1-2.17-.49-3.24a8.342 8.342 0 0 0-2.52-3.58c1.11-3.4.65-7.26-1.59-10.41-2.19-3.07-5.61-4.74-9.11-4.84-.23-.75-.58-1.49-1.07-2.16-2.38-3.32-7.02-4.1-10.34-1.72a7.416 7.416 0 0 0-1.71 10.36c.49.67 1.06 1.24 1.71 1.69-1.05 3.36-.56 7.13 1.64 10.19 1.7 2.38 4.14 3.92 6.79 4.53.09.57.23 1.13.43 1.69a8.388 8.388 0 0 0 3.97 4.57c2.03 1.06 4.46 1.31 6.79.46a8.436 8.436 0 0 0 5.5-7.54z"></path><path d="M1850.19 1832.33a8.342 8.342 0 0 0-2.52-3.58c1.11-3.4.65-7.26-1.59-10.41-2.17-3.04-5.54-4.69-9-4.82.69 2.04 2.49 3.99 3.78 5.54 2.19 2.63 4.41 5.22 4.41 8.83 0 1.16-.26 2.35-.7 3.41-.27.65-.62 1.1-.59 1.77.08 1.62.96 3.16-.01 4.71-.91 1.47-3.02 2.1-4.65 1.81-1.99-.36-3.12-2.18-4.93-2.87-.12-.05-.23-.06-.34-.1.09.49.2.97.37 1.45a8.388 8.388 0 0 0 3.97 4.57c2.03 1.06 4.46 1.31 6.79.46 3.27-1.19 5.36-4.24 5.5-7.53.05-1.07-.1-2.16-.49-3.24z" opacity=".1"></path><path fill="#7e4b42" d="M1730.19 1813.35s-16.97-37.96-38.96-31.99c-37.4 10.16-45.77 56.57-21.57 92.5 4.38 6.5 12.17.42 20.16 6.62 0 0-26.34-65.47 3.02-57.3 17.85 4.97 30.75 14.01 30.75 14.01l6.6-23.84z"></path><path fill="#f4f1e4" d="M1729.07 1812.57c-3.29-1.01-5.04-4.13-6.62-6.94-1.6-2.85-3.28-5.41-5.68-7.67-2.48-2.33-5.34-4.64-8.26-6.39-2.55-1.53-5.66-2.09-8.54-2.7-3.01-.64-6.16-.93-9.2-.3-3.03.63-5.7 2.12-8.06 4.09-1.59 1.32-3.23 2.26-5.2 2.92-2.73.92-7.21 1.62-8.03-1.37 5.57-5.92 12.82-10.42 21.74-12.84 20.36-5.53 36.42 26.6 38.68 31.38-.27-.06-.54-.09-.83-.18z" opacity=".25"></path><path d="M1670.13 1853.56c3.78-2.03 4.36-6.47 3.65-10.32-.91-5-3.72-9.27-3.96-14.44-.18-3.83.15-9.6 3.57-12.08 1.97-1.43 4.52-2.23 6.8-3.01a64.38 64.38 0 0 1 7.61-2.09c5.31-1.11 10.88-1.94 16.22-.61 4.74 1.18 9.21 3.33 13.93 4.65 3.2.89 6.76 1.63 10 .5.62-.22 1.16-.56 1.71-.89l-6.07 21.91s-12.9-9.04-30.75-14.01c-29.35-8.17-3.02 57.3-3.02 57.3-7.99-6.2-15.78-.12-20.16-6.62-4.38-6.51-7.68-13.37-9.95-20.29 3.29 1.1 7.26 1.69 10.42 0z" opacity=".1"></path><path fill="#7e4b42" d="M1677.76 1889.11s10.5 3.97 11.91-6.57c2.55-19.04-42.21-22.75-42.66-35.35.01 0-18.02 4.53 30.75 41.92z"></path><path fill="#f4f1e4" d="M1686 1879.76c-.97-4.48-5.06-7.15-8.95-8.99-5.47-2.58-12.04-2.65-17.15-6-2.17-1.42-3.8-3.5-5.62-5.31-1.8-1.79-3.64-2.96-5.99-3.86-2.8-1.08-3.86-2.64-4.1-5.68 0-.05 0-.11-.01-.16.86-2.06 2.86-2.57 2.86-2.57.45 12.6 45.21 16.31 42.66 35.35-.55 4.12-2.5 6.01-4.66 6.79 1.18-3.12 1.55-6.83.96-9.57z" opacity=".25"></path><path fill="#6d3b35" d="M1707.53 1820.61s-1.47-15.53 2.86-22.27c0 0-9.96 6.08-2.86 22.27zM1681.48 1818.24s-8.06-8.74-8.55-14.82c-.01.01-3.24 8.29 8.55 14.82zM1678.18 1824.52s-11.74-1.82-15.92-6.28c.01 0 2.63 8.5 15.92 6.28zM1677 1831.76s-11.75 1.83-17.07-1.15c0 0 5.08 7.3 17.07 1.15zM1677.68 1841.82s-11.75 1.83-17.07-1.15c0 0 5.08 7.3 17.07 1.15zM1678.21 1853.74s-10.18 1.58-14.8-1c0 0 4.4 6.33 14.8 1zM1682.43 1870.84s-5.44 8.75-10.41 10.56c0 .01 7.66.8 10.41-10.56zM1674.71 1867.11s-4.37 7.02-8.35 8.47c0 .01 6.15.64 8.35-8.47zM1667.4 1863.9s-3.3 5.31-6.32 6.41c0 0 4.66.48 6.32-6.41zM1658.14 1859.84s-2.09 3.37-4 4.06c-.01.01 2.94.31 4-4.06zM1688.3 1816.15s-3.37-15.23.09-22.45c0-.01-9.14 7.26-.09 22.45zM1698.41 1819.17s-1.79-18.97 3.49-27.2c0-.01-12.17 7.42-3.49 27.2z"></path><path fill="#db9967" d="M1712.81 1835.02c-.06-1.15.11-2.33.53-3.47a9.003 9.003 0 0 1 2.7-3.83c-1.19-3.64-.7-7.79 1.7-11.16 2.35-3.29 6.02-5.08 9.77-5.19.25-.8.62-1.6 1.15-2.32 2.56-3.56 7.53-4.4 11.09-1.84 3.58 2.56 4.4 7.52 1.84 11.11-.52.72-1.13 1.32-1.83 1.81 1.12 3.6.6 7.64-1.76 10.92-1.82 2.55-4.44 4.2-7.28 4.86-.09.62-.25 1.21-.46 1.81-.8 2.18-2.35 3.9-4.26 4.9a9.011 9.011 0 0 1-7.28.5 9.053 9.053 0 0 1-5.91-8.1z"></path><path d="M1713.33 1831.55a9.003 9.003 0 0 1 2.7-3.83c-1.19-3.64-.7-7.79 1.7-11.16 2.32-3.26 5.94-5.03 9.65-5.17-.74 2.19-2.67 4.28-4.05 5.93-2.35 2.82-4.73 5.6-4.73 9.47 0 1.24.28 2.52.76 3.66.29.7.67 1.18.63 1.9-.09 1.74-1.03 3.39.01 5.05.98 1.57 3.24 2.25 4.98 1.94 2.13-.38 3.34-2.33 5.28-3.08.13-.05.24-.07.37-.1-.09.53-.21 1.05-.4 1.56-.8 2.18-2.35 3.9-4.26 4.9a9.008 9.008 0 0 1-7.28.5 8.976 8.976 0 0 1-5.89-8.07 9.18 9.18 0 0 1 .53-3.5zM1793.8 2008.39c-7.19 6.68-11.74-.87-11.74-.87-9.78 7.5-15.91.69-15.91.69 1.68 11.41 15.63 1.04 15.63 1.04 2.33 11.41 11.78 1.37 11.78 1.37 4.98 6.19 7.64-10.01 7.64-10.01-5.19 13.26-7.4 7.78-7.4 7.78zM1761.43 2002.13c-4.29-.52-3.05-4.2-3.05-4.2-5.31-1.16-4.76-5.17-4.76-5.17-3.37 3.81 4.09 5.56 4.09 5.56-3.18 4.03 2.89 4.36 2.89 4.36-.67 3.44 5.55-.27 5.55-.27-5.94 2.03-4.72-.28-4.72-.28zM1810.97 1982.4c-.26 5.83-5.34 4.54-5.34 4.54-1.01 7.26-6.45 6.94-6.45 6.94 5.47 4.13 7.06-6.09 7.06-6.09 5.75 3.86 5.56-4.34 5.56-4.34 4.69.54-.95-7.43-.95-7.43 3.34 7.78.12 6.38.12 6.38z" opacity=".1"></path><path fill="#603d52" d="M1179.28 2417.92s29.2-7.38 40.33 1.05c11.13 8.43 62.88 55.12 60.39 77.56-2.49 22.44-31.62 25.03-47.14 13.6-15.52-11.43-74.77-47.16-53.58-92.21z"></path><path fill="#ffb598" d="M1054.14 2498.84s100.04-17.08 127.1-28.48c0 0 35.47 46.12 64.13 47.98 14.19.92 31.56-13.18 19.54-27.68 0 0 11.73-7.28-4.89-21.16-16.61-13.88-52.38-46.52-78.57-47.13-26.19-.62-96.91 9.39-128.55 8.88-31.63-.53 1.24 67.59 1.24 67.59z"></path><path fill="#49283d" d="M1236.1 2445.8s3.36 37.28 28.81 44.86c0 0-46.16 4.57-47.27 15.62 0 0-7.24 6.69-8.82-6.99s43.8-11.19 43.8-11.19-32.91-26.42-25.55-45.19c.01 0 4.48-8.68 9.03 2.89z"></path><path fill="#68342d" d="M871.82 2545.99s261.01-36.63 276.56-64.65c15.56-28.02 43.99-72.95 7.63-86.42-36.36-13.48-146-25.99-146-25.99l-138.19 177.06z"></path><path fill="#7e4b42" d="M977.88 2238.34s-61.34 84.06-88.63 110.25c-27.29 26.18-129.76 144.42-41.81 200.22 87.96 55.8 319.79-210.79 313.36-246.45-16.18-89.93-182.92-64.02-182.92-64.02z"></path><path fill="#ef9c81" d="M1222.2 1980.02s95.61 52.83 116.51 43.7c20.9-9.13 66.01-45.46 40.21-60.08-25.8-14.62-124.1-57.8-142.08-74.61-18.5-17.28-14.64 90.99-14.64 90.99z"></path><path fill="#8c7750" d="M1285.72 1916.76s-23.34 68.49-41.61 79.21c-14.54 8.53-6.57 11.75-40.62-3.37-27.44-12.18-75.19-196.88-35.21-168.14 39.98 28.73 117.44 92.3 117.44 92.3z"></path><path fill="#ef9c81" d="M898.41 1956.36s-87.89 162.49-16.97 224.38c30.05 26.22 65.34-132.02 73.35-193.85l-56.38-30.53z"></path><path fill="#8c7750" d="M1003.79 1827.03c44.06 25.85-33.64 188.45-33.64 188.45s-84.45-32-88.56-59.44c-4.11-27.44 81.05-153.15 122.2-129.01z"></path><path fill="#c6b381" d="M1094.17 1814.78c26.02 1.44 86.61-5.38 97.14 37.83 12.64 51.86 124.74 362.07 88.78 388.69-98.75-21.4-320.14 74.04-338.8 39.97-35.87-65.49 20.7-420.91 45.31-453.49 5.37-7.12 66.24-15.28 107.57-13z"></path><path fill="#8c7750" d="M1280.06 2241.27c-98.69-21.33-320.15 74.08-338.8 39.98-5.2-9.48-8.48-25.07-10.17-44.87 202.27-4.51 292.4-159.23 315.18-206.17 28.6 96.02 53.59 196.46 33.79 211.06z" opacity=".2"></path><path fill="#ffb598" d="m1069.62 1748.83-1.91 60.25s6.69 12.11 21.99 16.58c15.3 4.46 28.26-21.56 28.26-21.56l-14.87-58.13-33.47 2.86z"></path><path fill="#7e4b42" d="M1082.8 1598.06s-12.73 62.09 29.97 86.56c0 0 42.23-7.53 36.71-46.83-5.5-39.3-34.53-54.86-66.68-39.73z"></path><path fill="#ffb598" d="M1138.17 1641.45c15.04 30.16 36.76 109.34 2.53 134.8-34.22 25.45-69.55 17.29-93.13-10.26-23.58-27.55-27.76-36.35-27.76-36.35s-23.97-1.96-20.21-23.07c3.76-21.11 16.64-10.09 16.64-10.09s-5.72-62.11 33.66-94.26c39.37-32.15 77.49 17.62 88.27 39.23z"></path><path fill="#7e4b42" d="M1008.01 1699.84s13.36 8.54 10.15 18.86c0 0-1.52-7.7-4.4-8.88 0 0-4.99 3.81-5.08 2.45-.08-1.35 2.71-5.24 2.71-5.24l-3.38-7.19zM1127.13 1708.39c-4.31 0-7.36-4.16-7.49-4.34a1.85 1.85 0 0 1 .41-2.57c.82-.6 1.97-.42 2.57.4.59.81 2.59 2.82 4.61 2.81 1.49-.05 2.97-1.24 4.41-3.52.54-.86 1.68-1.13 2.54-.58.86.54 1.12 1.68.58 2.54-2.13 3.39-4.63 5.16-7.42 5.25-.06.01-.13.01-.21.01zM1050.89 1682.52s29.37-2.85 32.19-5.88c2.83-3.04-6.67-8.72-19.49-4.84-12.82 3.88-16.08 10.77-12.7 10.72zM1078.23 1694.06c.86 4.68-1.67 9.06-5.63 9.78-3.95.72-7.87-2.47-8.72-7.16-.86-4.68 1.67-9.08 5.62-9.8 1.11-.2 2.21-.1 3.25.29-1.32.67-2.1 2.37-1.77 4.17.39 2.11 2.17 3.58 3.97 3.25 1.32-.24 2.3-1.39 2.55-2.82.33.71.58 1.47.73 2.29zM1121.71 1665.79s29.37-2.85 32.19-5.88c2.83-3.04-6.67-8.72-19.49-4.84-12.82 3.88-16.07 10.78-12.7 10.72zM1149.05 1677.33c.86 4.69-1.67 9.06-5.63 9.78-3.95.72-7.87-2.47-8.72-7.16-.86-4.69 1.67-9.08 5.62-9.8 1.11-.2 2.21-.1 3.25.29-1.32.67-2.1 2.37-1.77 4.17.39 2.11 2.17 3.58 3.97 3.25 1.32-.24 2.3-1.39 2.55-2.82.33.72.58 1.47.73 2.29zM1102.53 1727.59c-16.34 6.16-23.23 32.18-30.14 30.03-6.31-2.01-30.33-24.24-35.01-28.77-6.09-5.94-22.8-1.63-9.21 13.15 4.16 5.65 10.33 13.37 19.39 23.99 23.62 27.56 58.91 35.73 93.15 10.25 13.22-9.8 18.05-27.71 18.2-47.61-10.48-4.01-29.24-11.28-56.38-1.04z"></path><path fill="#fff" d="M1143.03 1737.85c-21.13 15.18-28.09.5-30.93 8.27-1.73 4.74 10.11 13.61 22.19 11.05 14.33-4.8 12.62-22.11 8.74-19.32z"></path><path fill="#404a4f" d="M1139.32 1654.05c-4.6 1.06-9.34 1.5-13.91 2.67-54.76 13.98-52.75-20.95-104.2-7.97 4.61-16.4 13.11-33.82 28.69-46.54 39.37-32.15 77.49 17.62 88.27 39.23 1.65 3.31 3.38 7.24 5.11 11.59-1.32.36-2.64.71-3.96 1.02z" opacity=".24"></path><path fill="#7e4b42" d="M1046.38 1609.92s12.73 62.09-29.97 86.56c0 0-42.23-7.52-36.71-46.83 5.51-39.3 34.54-54.86 66.68-39.73z"></path><path fill="#c6b381" d="M999.2 1696.48c4.92-1.7 46.42-42.72 103.27-51.06l-27.51-79.61s-52.34 8.94-79.32 39.47c-45.04 51 3.56 91.2 3.56 91.2z"></path><path fill="#8c7750" d="M1074.96 1565.81s38.24-5.82 56.52 17.2 16.74 48.44 16.74 48.44l-45.75 13.97-27.51-79.61zM1125.51 1802.64l-34.16 5.84-34.15-5.84-8.75 14.22 25.17 9.37s-20.07 130.13 20.35 130.13c47.4 0 15.13-130.13 15.13-130.13l25.17-9.37-8.76-14.22z"></path><path fill="#68342d" d="M1099.34 2256.89s101.07-89.34 170.26-103.34 67.65 26.96 79.96 81.08c12.31 54.12-164.12 148.64-215.3 146.94-51.19-1.7-34.92-124.68-34.92-124.68z"></path><path fill="#603d52" d="M1275.86 2511.91s-1.88 30.06 8.45 39.45c10.33 9.39 65.75 51.66 87.35 45.08 21.6-6.57 18.79-35.69 4.7-48.84-14.08-13.14-60.11-64.8-100.5-35.69z"></path><path fill="#ffb598" d="M1332.38 2374.02s1.62 101.47-4.6 130.17c0 0 51.86 26.37 58.97 54.21 3.52 13.78-7.14 33.45-23.61 24.3 0 0-5 12.87-21.7-.91-16.7-13.77-55.36-42.92-60.79-68.55-5.43-25.63-8.61-96.98-14.94-127.98-6.34-31.01 66.67-11.24 66.67-11.24z"></path><path fill="#49283d" d="M1313.73 2562.63s37.26-3.56 49.39 20.06c0 0-4-46.22 6.65-49.34 0 0 5.24-8.35-8.49-7.38-13.73.97-2.93 45.11-2.93 45.11s-32.03-27.48-49.12-16.79c0 0-7.71 6 4.5 8.34z"></path><path fill="#7e4b42" d="M1220.78 2221.07c-18.89 64.4 3.17 248.18 44.53 252.18s76.56-2.19 75.8-6.74c-.76-4.55 56.65-237.53.37-297.94-56.28-60.4-111.37 20.68-120.7 52.5z"></path><path fill="#ffb598" d="m1124.98 1976.53 14.73 46.95S897.09 2238.77 865 2171.27c-72.2-151.91 259.98-194.74 259.98-194.74z"></path><path fill="#006837" d="M1164.41 2015.49s11.71 39.17 8.41 45.03c-3.29 5.85-8.41 0-8.41 0l-5.49-31.1s4.53 30.37-5.97 29.64c-10.5-.73-1.12-26.8-1.12-26.8s-1.33 15.4-10.48 14.88c-9.15-.52 5.52-34.63 5.52-34.63l17.54 2.98z"></path><path fill="#0e7c45" d="M1166.6 2012.49c0 1.19 16.19 35.18 11.37 37.86-4.82 2.68-13.93-17.34-13.93-17.34s-8.65 27.5-11.09 12.13c-2.45-15.37 4.33-34.79 4.33-34.79l9.32 2.14z"></path><path fill="#006837" d="M1159.65 1971.46s36.59-104.13 95.86-94.25c0 0-81.49-17.26-103.68 88.69l7.82 5.56z"></path><path fill="#0e7c45" d="M1164.89 1981.18s8.56-110.04 68.38-115.75c0 0-83.19 4.29-77.36 112.39l8.98 3.36z"></path><path fill="#006837" d="M1160.01 1965.9s11.25-56.86 5.63-68.93c-5.63-12.07-19.76 60.44-12.69 74.49 7.06 14.05 7.06-5.56 7.06-5.56z"></path><path fill="#0e7c45" d="M1143.29 1873.55s28.07 67.01 15.82 102.98h-12.24s8.97-23.58-3.58-102.98z"></path><path fill="#ffb598" d="M1181.43 2018.63v-.01c-30.93 13.63-55.54.36-55.54.36s-12.15-31.79-3.23-41.18c10.4-10.95 18.84-45.11 27.26-37.27 8.43 7.85-4.63 28.23-4.63 28.23s.27-.14.78-.38c3.07-1.47 14.8-6.71 26.64-7.7h.01c3.29-.25 6.59-.2 9.72.37.55.11 1.1.22 1.64.34.96.23 1.91.52 2.83.88.15.05.31.11.46.18.46.18.91.38 1.35.59l.05.03c0 .01 0 .01.01.03.99.89 1.89 2.26 2.42 4.37 1.7 6.82-3.43 9.01-3.43 9.01s5.39.99 5.92 6.71c.57 6.07-3.99 6.29-3.99 6.29s5.2 2.83 5.47 7.63c.29 5.06-5.01 5.22-5.01 5.22s3.98 1.47 4.37 7.4c.35 5.34-13.1 8.9-13.1 8.9z"></path><path fill="#fff" d="M1182.71 1992.17c.18.09.31.25.29.52-.15 3.04-.18 5.93 1.5 8.59.56.88 1.18 1.9.94 2.99-.11.5-.39.92-.62 1.37-.31.6-.37 1.19-.39 1.86-.04 2.2.39 4.42 1.04 6.51.3.96.66 1.92 1.08 2.86 3.76-1.55 8.17-4.04 7.97-7.13-.4-5.93-4.37-7.4-4.37-7.4s5.29-.16 5.01-5.22c-.27-4.8-5.47-7.63-5.47-7.63s4.56-.22 3.99-6.29c-.53-5.72-5.92-6.71-5.92-6.71s5.13-2.19 3.43-9.02c-.53-2.11-1.43-3.48-2.42-4.37 0-.01 0-.01-.01-.03l-.05-.03c-.44-.21-.89-.41-1.35-.59-.15-.06-.31-.13-.46-.18-.92-.36-1.87-.64-2.83-.88-.54-.12-1.09-.23-1.64-.34.88 1.44 1.42 3.2 1.78 4.79.4 1.81.62 3.81-.17 5.55-.82 1.84-2.58 2.97-3.57 4.69-1.01 1.81-.6 4.14.45 5.84.91 1.48 2.31 2.45 2.6 4.26.32 2.01-.35 3.99-.81 5.92.01.03 0 .05 0 .07zM1146.87 1941.09s-3.12 8.5-4.68 8.96c-1.56.46-2.48-1.3-2.48-1.3s4.25-7.6 7.16-7.66z" opacity=".2"></path><path fill="#7c6950" d="M1559.73 2410.16s-6.45 77.54-12.26 106.82l-23.09-9.04 3.08-97.48 32.27-.3z"></path><path d="M1548.22 2512c-3.68-3.83-5.69-9.19-7.25-14.17-1.79-5.73-3.25-11.59-2.62-17.64.33-3.18 1.2-6.36 2.77-9.16 1.44-2.55 3.51-5 4.11-7.94 1.06-5.19-2-10.52-3.07-15.48-1.11-5.2 0-10.18 3.93-13.91 3.57-3.39 8.97-4.62 11.42-9.14.41-.76.78-1.55 1.17-2.32.67-7.43 1.05-12.09 1.05-12.09l-32.27.31-3.08 97.48 23.09 9.04c.3-1.49.59-3.14.89-4.86-.04-.04-.1-.07-.14-.12z" opacity=".2"></path><path fill="#423a30" d="M1524.46 2505.47c5.44-.65 18.13 7.33 23.58 8.51-.42 1.69-2.43 10.77-2.82 11.81-6.25 16.14-39.93 13.65-46.94 7.24-6.98-6.41 7.12-10.43 7.12-10.43s-9.11.25-9.38-1.77c-.78-5.68 28.44-15.36 28.44-15.36z"></path><path d="M1538.91 2525.63c-3.76 1.43-9.08 3.09-12.46-.09-2.78-2.62-3.21-7.01-3.31-10.61-.09-3.18.4-6.25.93-9.32-3.4 1.15-28.78 9.93-28.07 15.23.27 2.02 9.38 1.77 9.38 1.77s-14.09 4.02-7.11 10.43c7.01 6.41 40.69 8.9 46.94-7.24.16-.44.62-2.31 1.11-4.44-2.1 1.91-4.61 3.21-7.41 4.27z" opacity=".2"></path><path fill="#e0dcce" d="M1514.79 2368.47s4.67 43.45 9.34 47.93c4.66 4.48 32.53 7.61 37.07 1.73 4.54-5.88 17.4-46.69 17.4-46.69l-63.81-2.97z"></path><path fill="#ddd5b3" d="M1623.69 2325.54c-.71 15.21-13.62 26.97-28.83 26.26-15.21-.71-26.97-13.62-26.26-28.83.71-15.21 13.62-26.97 28.83-26.26 15.21.71 26.97 13.62 26.26 28.83z"></path><path fill="#d1c9a6" d="M1564.34 2305.32c-20.05-.94-37.5 11.98-43.2 30.3-11.73 2.72-20.72 12.94-21.31 25.56-.71 15.21 11.05 28.12 26.26 28.83 5.58.26 10.84-1.17 15.31-3.81 5.64 3.13 12.04 5.09 18.92 5.41 23.83 1.11 44.04-17.3 45.15-41.13 1.11-23.84-17.3-44.05-41.13-45.16z"></path><path fill="#ddd5b3" d="M1573.92 2291.35c-3.09-.14-6.08.25-8.9 1.06-7.4-10.72-19.5-18.01-33.52-18.67-23.83-1.11-44.04 17.3-45.15 41.13-1.11 23.83 17.3 44.04 41.13 45.15 14.02.65 26.75-5.48 35.11-15.47a27.35 27.35 0 0 0 8.76 1.88c15.21.71 28.12-11.05 28.83-26.26.72-15.2-11.04-28.11-26.26-28.82z"></path><path fill="#7c6950" d="M1513.3 2425.43s-19.85 75.23-30.66 103.06l-21.16-12.92 19.99-95.45 31.83 5.31z"></path><path d="m1481.47 2420.11-1.12 5.33c1.33 2.55 3.05 4.92 5.27 7 4.35 4.07 10.56 6.46 13.33 12.04 2.67 5.36.94 11.28-1.9 16.15-1.54 2.65-3.39 5.16-4.57 7.99-1.42 3.41-1.25 6.51-.61 10.08.58 3.25 1.13 6.52.43 9.79-.74 3.46-2.99 6.09-4.81 9.03-3.21 5.2-2.52 11.4-3.52 17.21-.76 4.39-2.45 8.43-5.8 11.01l4.48 2.74c10.82-27.83 30.66-103.06 30.66-103.06l-31.84-5.31z" opacity=".1"></path><path fill="#4d463c" d="M1461.98 2513.14c5.47.3 16.58 10.38 21.74 12.48-.71 1.59-4.27 10.19-4.84 11.14-8.97 14.81-41.7 6.49-47.49-1.04-5.76-7.53 8.82-9.03 8.82-9.03s-9.01-1.34-8.93-3.38c.24-5.72 30.7-10.17 30.7-10.17z"></path><path d="M1464.19 2513.66c1.26 3.69 3.2 7.05 6.1 9.96 2.15 2.16 5.06 5.95 2.85 9.01-3.27 4.53-10.62 1.6-14.91 1.05-1.06-.14-1.87-.21-2.69.45-.73.59-1.32 1.4-2.04 2.02-1.69 1.46-3.89 2.57-6.17 1.91-2.14-.62-3.42-2.5-3.35-4.7.03-1.08.39-2.11.6-3.16.06-.32.38-1.29.51-1.99-.62.03-1.29.18-1.77.24-1.15.15-2.29.35-3.44.44-1.91.16-3.9-.18-5.84-.67-3.11 1.29-5.65 3.57-2.65 7.5 5.79 7.53 38.52 15.85 47.49 1.04.57-.96 4.13-9.55 4.84-11.14-4.54-1.85-13.68-9.85-19.53-11.96z" opacity=".2"></path><path fill="#e0dcce" d="M1476.3 2376.55s-2.96 43.6.85 48.83c3.81 5.22 30.71 13.15 36.2 8.15 5.49-5 25.26-42.95 25.26-42.95l-62.31-14.03z"></path><path fill="#ddd5b3" d="M1591 2353.23c-3.35 14.86-18.1 24.19-32.96 20.84-14.86-3.35-24.19-18.1-20.84-32.96 3.35-14.86 18.1-24.19 32.96-20.84 14.86 3.34 24.19 18.1 20.84 32.96z"></path><path fill="#d1c9a6" d="M1536.09 2322.98c-19.59-4.41-39.02 5.27-47.82 22.32-12.03.64-22.66 9.13-25.44 21.46-3.35 14.86 5.99 29.61 20.84 32.96 5.45 1.23 10.87.74 15.74-1.09 5.01 4.07 10.97 7.11 17.69 8.62 23.27 5.24 46.38-9.37 51.62-32.64 5.25-23.28-9.36-46.39-32.63-51.63z"></path><path fill="#ddd5b3" d="M1547.95 2310.9c-3.02-.68-6.03-.81-8.95-.51-5.42-11.84-16.07-21.13-29.76-24.22-23.27-5.24-46.38 9.37-51.62 32.64-5.24 23.27 9.37 46.38 32.64 51.62 13.69 3.08 27.29-.74 37.27-9.12 2.5 1.53 5.28 2.7 8.3 3.38 14.86 3.35 29.61-5.99 32.96-20.84 3.35-14.85-5.98-29.61-20.84-32.95z"></path><path fill="#7c6950" d="m1954.77 2363.38 111.77 73.31-14.59 86.07 22.66-5.59s35.42-70.25 35.54-83c.12-12.76-37.74-86.13-37.74-86.13s-126.43-22.33-117.64 15.34z"></path><path d="M2046.92 2410.82c2.57-3.73 7.52-4.1 11.64-4.17 4.63-.08 9.07.04 13.47-1.71 4.55-1.81 5.38-5.27 4.47-9.83-.36-1.78 1.95-2.71 3.09-1.45 3.72 4.1 7.83 7.91 11 12.48 3.07 4.43 4.36 9.38 6.6 14.2 1.08 2.34 2.43 3.64 4.4 5.2 1.51 1.2 2.71 2.5 3.32 4.36 1.2 3.63.23 7.34-.92 10.84-1.25 3.79-2.69 7.69-.98 11.59.26.6.61 1.15.93 1.72 3.67-9.06 6.18-16.49 6.22-19.86.12-12.76-37.74-86.13-37.74-86.13s-126.44-22.33-117.65 15.34l92.06 60.38c-1.69-4.11-2.59-9.07.09-12.96z" opacity=".1"></path><path fill="#4d463c" d="M2050.78 2510.06c5.45-1.55 19.74 4.55 25.5 4.87-.16 1.8-.74 11.42-.97 12.54-3.77 17.53-38.62 20.45-46.84 15.04-8.18-5.42 5.58-11.83 5.58-11.83s-9.28 1.73-9.88-.29c-1.71-5.67 26.61-20.33 26.61-20.33z"></path><path d="M2053.01 2509.82c1.5 2 3.54 3.7 5.38 5 2.84 2.02 5.88 4.02 7.13 7.44 1.97 5.43.66 12.86-4.44 16.11-2.57 1.64-5.67 2.22-8.67 2.41-2.86.18-5.78.36-8.65.33-2.78-.03-6-.39-8.08-2.45a5.96 5.96 0 0 1-1.77-4.17c-.01-.65-.15-1.31-.21-1.95-.49-.23-.98-.56-1.46-.88-3.44 1.99-10.01 6.7-3.76 10.85 8.21 5.42 43.07 2.49 46.84-15.04.23-1.13.81-10.75.97-12.54-5.11-.27-16.86-5.07-23.28-5.11z" opacity=".2"></path><path fill="#e0dcce" d="M2090.84 2318.02c3.34 15.42-6.45 30.62-21.87 33.96-15.42 3.34-30.62-6.45-33.96-21.87-3.34-15.41 6.45-30.62 21.87-33.96 15.42-3.34 30.62 6.45 33.96 21.87z"></path><path fill="#e0dcce" d="M2026.06 2313.57c-20.32 4.4-34.35 21.98-35.18 41.82-11.02 5.84-17.3 18.46-14.53 31.25 3.34 15.41 18.54 25.21 33.96 21.87a28.318 28.318 0 0 0 14.3-7.89c6.48 1.64 13.41 1.89 20.38.38 24.14-5.23 39.48-29.04 34.25-53.18-5.23-24.15-29.04-39.48-53.18-34.25z"></path><path fill="#ddd5b3" d="M2021.54 2308.38a28.49 28.49 0 0 0-8.62 3.43c-10.26-8.76-24.31-12.84-38.52-9.77-24.14 5.23-39.48 29.04-34.25 53.18 5.23 24.14 29.04 39.48 53.18 34.25 14.2-3.08 25.31-12.6 31.03-24.82 3.02.34 6.14.23 9.27-.45 15.41-3.34 25.21-18.54 21.87-33.96-3.34-15.41-18.54-25.2-33.96-21.86z"></path><path fill="#7c6950" d="m1885.84 2352.38 108.12 78.59-18.71 85.27 22.91-4.49s38.76-68.46 39.49-81.2c.73-12.74-33.55-87.85-33.55-87.85s-125.23-28.37-118.26 9.68z"></path><path d="M1975.6 2404.19c2.74-3.6 7.71-3.73 11.83-3.61 4.63.14 9.06.47 13.54-1.06 4.63-1.59 5.63-5.01 4.94-9.61-.27-1.79 2.08-2.61 3.15-1.3 3.52 4.27 7.45 8.28 10.39 12.99 2.86 4.57 3.91 9.58 5.91 14.5.97 2.38 2.25 3.75 4.14 5.41 1.45 1.27 2.59 2.63 3.11 4.51 1.02 3.68-.12 7.34-1.44 10.78-1.43 3.73-3.06 7.55-1.53 11.53.23.61.55 1.18.85 1.76 4.1-8.88 6.97-16.17 7.16-19.54.73-12.74-33.55-87.85-33.55-87.85s-125.22-28.38-118.25 9.67l89.06 64.74c-1.51-4.16-2.18-9.16.69-12.92z" opacity=".1"></path><path fill="#4d463c" d="M1974.69 2503.51c5.52-1.29 19.49 5.5 25.23 6.09-.24 1.79-1.29 11.37-1.57 12.48-4.61 17.33-39.56 18.57-47.51 12.77-7.91-5.81 6.14-11.54 6.14-11.54s-9.35 1.29-9.86-.76c-1.42-5.77 27.57-19.04 27.57-19.04z"></path><path d="M1976.93 2503.37c1.41 2.07 3.36 3.87 5.13 5.26 2.74 2.15 5.68 4.29 6.76 7.78 1.71 5.52.04 12.88-5.21 15.88-2.64 1.51-5.77 1.94-8.77 1.99-2.87.05-5.79.08-8.66-.09-2.78-.17-5.97-.68-7.95-2.83a5.96 5.96 0 0 1-1.57-4.25c.02-.65-.09-1.31-.12-1.96-.47-.25-.95-.61-1.42-.95-3.53 1.82-10.32 6.22-4.27 10.66 7.94 5.8 42.9 4.56 47.51-12.77.28-1.12 1.33-10.7 1.57-12.48-5.08-.54-16.59-5.89-23-6.24z" opacity=".2"></path><path fill="#ddd5b3" d="M2023.93 2313.61c2.59 15.56-7.92 30.27-23.47 32.87-15.56 2.59-30.27-7.92-32.87-23.47-2.59-15.56 7.92-30.27 23.48-32.87 15.55-2.6 30.26 7.91 32.86 23.47z"></path><path fill="#e0dcce" d="M1959.44 2306.05c-20.51 3.42-35.36 20.3-37.15 40.08-11.29 5.31-18.17 17.61-16.02 30.52 2.59 15.56 17.31 26.07 32.87 23.48a28.44 28.44 0 0 0 14.67-7.19c6.39 1.95 13.3 2.53 20.34 1.36 24.37-4.06 40.83-27.11 36.77-51.48-4.07-24.37-27.12-40.83-51.48-36.77z"></path><path fill="#e0dcce" d="M1955.17 2300.65a28.7 28.7 0 0 0-8.78 3.01c-9.82-9.25-23.67-13.99-38-11.61-24.37 4.06-40.83 27.11-36.77 51.48s27.11 40.83 51.48 36.77c14.33-2.39 25.89-11.37 32.18-23.31 3 .49 6.12.53 9.28 0 15.56-2.59 26.07-17.31 23.47-32.87-2.59-15.55-17.3-26.06-32.86-23.47z"></path><path fill="#c6b381" d="M1442.13 2031.83h-.08c-.38-2.68.61-6.57-1.83-8.26-2.29-1.61-4.51-3.21-6.5-4.82-.15 1.45-.07 2.9.15 4.43.15 1.22.38 2.37.69 3.52-15.06 7.41-24.16 24.16-21.71 43.19.31 2.52.84 4.97 1.53 7.42-9.79 4.2-15.82 14.68-14.3 26.76.15 1.45.46 2.9.84 4.36 11.47-.69 23.09-8.41 27.83-33.56 0 0 17.12-17.12 13.38-43.04z"></path><path fill="#c6b381" d="M2066.3 2320.49c.08.61.23 1.15.31 1.76 5.35 39.52-22.78 71.63-62.53 71.63-37.69 0-72.16-28.9-79.73-65.51-6.19 1.99-12.77 3.06-19.8 3.06-14.91.15-29.36-4.51-41.74-12.31-4.74 17.58-20.18 30.04-40.06 30.2-6.8 0-13.45-1.45-19.65-4.05-7.19 11.16-19.57 18.35-34.55 18.35-5.35 0-10.62-.92-15.67-2.6-4.51 4.82-10.85 7.8-18.35 7.8-5.73 0-11.31-1.68-16.13-4.66-6.35 4.97-14.37 7.87-23.39 7.87-13.84 0-26.99-6.65-36.08-17.05-3.21 1.53-6.88 2.37-10.78 2.37-9.48.08-18.5-4.74-24.46-12.16-8.56 11.08-21.86 18.04-37.61 18.12-16.28 0-31.8-7.34-43.19-19.03-8.79 14.07-24 23.09-42.43 23.16-31.57.08-60.39-26.37-64.52-59.02-1.53-12 .54-23.16 5.2-32.57-15.75-7.26-27.9-22.86-30.2-41.05-.92-6.8-.23-13.3 1.61-19.19-8.87-4.59-15.59-13.68-16.97-24.23-1.07-8.71 1.76-16.59 7.11-21.86 3.21-3.13 7.34-5.35 12.08-6.19-5.43-7.11-9.1-15.6-10.32-24.84-.84-6.96-.15-13.53 1.76-19.49-2.37-3.13-4.13-6.73-5.27-10.55 11.47-.69 23.09-8.41 27.83-33.56 0 0 17.12-17.12 13.38-43.04h-.08c-.38-2.68.61-6.57-1.83-8.26-2.29-1.61-4.51-3.21-6.5-4.82-44.26-34.63-31.34-73.46-40.97-63.91-4.74 4.66-38.68 46.63-58.71 17.35 0 0-39.98 13.3-21.33-17.35 0 0-2.83-18.73 9.63-33.25-.31-1.07-.61-2.22-.77-3.52-.99-9.4 4.51-19.42 12.46-22.4 1.61-.61 3.13-.84 4.66-.76 3.36-7.95 9.33-14.45 16.59-17.12 10.17-3.82 19.72 1.15 23.62 11.31.54-.31 1.15-.61 1.76-.84 1.22-.46 2.29-.61 3.44-.61 2.44-5.73 6.73-10.55 12-12.54 8.94-3.29 17.2 2.68 18.5 13.38.08.76.08 1.53.08 2.37 2.29-1.83 4.97-2.98 7.72-2.91 1.45 0 2.75.31 3.9.84 4.43-5.89 10.63-9.71 17.05-9.56 10.85.15 18.12 11.31 16.28 25.07-.15.76-.31 1.53-.46 2.22 1.99 1.76 3.82 3.59 5.58 5.66 0 0 57.33 7.11 66.66 70.25 0 0 24 .69 37.99 18.5 8.26.92 16.13 4.05 22.93 8.87 4.2-3.9 9.79-6.42 16.21-6.65 8.33-.31 16.21 3.21 22.09 8.87 6.11-4.13 13.53-6.65 21.79-6.96 11.08-.38 21.79 3.29 30.65 9.63 4.05-3.21 9.25-5.2 15.06-5.43 7.34-.23 14.37 2.37 20.03 6.88 6.96-5.96 15.98-9.71 26.22-10.09 10.78-.38 21.25 3.06 29.97 9.02 9.56-6.73 21.18-10.78 34.25-11.31 9.33-.31 18.58 1.3 27.14 4.36 4.59-6.04 11.7-10.01 20.26-10.4 10.85-.38 21.1 5.2 27.29 13.84 4.59-5.58 11.54-9.25 19.8-9.56 9.56-.31 18.65 3.98 24.92 10.78 6.73-4.51 14.83-7.34 23.93-7.72 24.69-.84 47.62 16.82 53.89 40.52 15.06 1.3 28.28 13.38 30.35 28.51.46 3.36.31 6.57-.31 9.56 11.55 11.93 19.57 27.21 21.86 44.03.77 5.5.77 10.93.31 16.13 14.75 12.61 25.23 30.2 27.9 49.92 2.75 20.18-3.36 38.53-15.29 51.75 8.64 8.41 14.68 19.42 16.28 31.57 2.59 18.8-5.97 35.16-20.65 43.42z"></path><path fill="#ddd5b3" d="M2026.81 2160.68c3.38 7.91 10.1 13.75 17.74 16.4.15 1.73.57 3.5 1.32 5.25 1.45 3.4 3.89 6.18 6.8 8.17-.71.4-1.44.74-2.09 1.23-8.82 6.62-9.63 19.63-1.82 29.08 4.6 5.56 11.18 8.64 17.62 8.9.56 1.36 1.34 2.69 2.36 3.92.55.66 1.15 1.24 1.78 1.79-6.94 9.64-6.22 23.73 2.69 34.52 6.32 7.65 15.35 11.9 24.19 12.3.78 1.87 1.85 3.69 3.25 5.39 6.89 8.33 18.81 10.44 26.61 4.7 7.82-5.76 8.54-17.2 1.61-25.54a22.65 22.65 0 0 0-4.77-4.28c1.73-8.24-.47-17.59-6.84-25.25-6.49-7.81-15.8-12.05-24.83-12.24-.45-2.32-1.46-4.63-3.16-6.68-1.02-1.23-2.2-2.26-3.47-3.1 1.26-6.02-.34-12.82-4.97-18.39-2.3-2.77-5.12-4.84-8.14-6.34 4.96-4.03 6.75-11.05 3.85-17.8-.75-1.75-1.77-3.34-2.97-4.74 3.86-6.29 4.59-14.5 1.18-22.44-5.79-13.49-21.23-20.98-34.46-16.76-13.2 4.18-19.22 18.47-13.48 31.91z"></path><path fill="#d1c9a6" d="M2115.72 2290.87c-3.61-5.86-10.27-9.18-13.58-15.33-3.09-5.75-2.96-11.73-3.59-17.75-.36-3.44-1.14-6.87-2.96-10.04-2.24-3.91-5.64-5.31-9.16-7.85-6.32-4.56-8.85-11.91-10.79-18.74-1.03-3.62-2.1-7.29-2.51-10.97-.53-4.81-.06-9.55.45-14.22.17-1.57.34-3.14.49-4.72-.46-.26-.91-.53-1.38-.77.57-.47 1.1-.98 1.59-1.53.18-2.49.23-5 .01-7.54-.32-3.74-1.2-7.5-2.2-11.19-3.96-14.59-10.92-30.51-22.91-41.2-.48-.43-.69-.89-.77-1.35-2.73-.05-5.47.21-8.12 1.05-13.19 4.21-19.22 18.5-13.47 31.94 3.38 7.91 10.1 13.75 17.74 16.4.15 1.73.57 3.5 1.32 5.25 1.45 3.4 3.89 6.18 6.8 8.17-.71.4-1.44.74-2.09 1.23-8.82 6.62-9.63 19.63-1.82 29.08 4.6 5.56 11.18 8.64 17.62 8.9.57 1.36 1.34 2.69 2.36 3.92.55.66 1.15 1.24 1.78 1.79-6.94 9.64-6.22 23.73 2.69 34.52 6.32 7.65 15.35 11.9 24.2 12.3.78 1.87 1.85 3.69 3.24 5.39 4.45 5.38 10.99 8.12 17.17 7.87-.55-1.59-1.21-3.15-2.11-4.61z"></path><path fill="#f2f0e7" d="M2089.4 2204.44c-2.66-19.68-13.16-37.31-27.95-49.93.51-5.19.48-10.55-.26-16.07-2.28-16.84-10.33-32.13-21.87-44.03.62-3.01.77-6.22.32-9.54-2.05-15.16-15.27-27.28-30.35-28.58-6.27-23.67-29.18-41.33-53.91-40.46-9.1.32-17.23 3.15-23.9 7.73-6.33-6.86-15.42-11.13-24.98-10.79-8.21.29-15.17 3.92-19.76 9.52-6.22-8.6-16.45-14.18-27.27-13.79-8.56.31-15.73 4.3-20.26 10.38-8.62-3.1-17.81-4.67-27.17-4.34-13.04.46-24.68 4.58-34.21 11.24-8.76-5.95-19.19-9.34-29.99-8.96-10.27.37-19.28 4.1-26.21 10.05-5.65-4.48-12.71-7.11-20.05-6.85-5.83.21-11 2.19-15.09 5.41-8.83-6.38-19.53-10.02-30.6-9.62-8.24.3-15.65 2.82-21.82 6.94-5.88-5.69-13.79-9.14-22.06-8.84-6.44.23-12.04 2.7-16.26 6.63-8.59-6.11-18.92-9.59-29.6-9.2-4.94.18-9.58 1.2-13.83 2.88-9.07-7.55-20.52-11.98-32.43-11.53-13.23.5-24.28 6.91-31.22 16.62-1.23-1.04-2.52-2-3.89-2.83-5.84-7.31-14.73-11.92-24.08-11.57-14.92.56-25.38 13.56-23.4 29.04.15 1.19.39 2.35.68 3.49-15.05 7.44-24.14 24.14-21.71 43.2.32 2.52.88 4.97 1.56 7.37-9.79 4.22-15.84 14.69-14.3 26.78.7 5.52 2.91 10.61 6.1 14.88-1.91 5.98-2.6 12.59-1.72 19.55 1.17 9.21 4.89 17.7 10.28 24.79-12.58 2.36-20.93 14.12-19.15 28.11 1.34 10.53 8.07 19.6 16.91 24.24-1.82 5.86-2.46 12.34-1.59 19.17 2.32 18.21 14.51 33.78 30.22 41.03-4.7 9.39-6.73 20.57-5.2 32.57 4.16 32.66 32.99 59.1 64.55 59.02 18.4-.05 33.62-9.12 42.39-23.16 11.41 11.65 26.91 19.04 43.21 18.99 15.74-.04 29.01-7.01 37.58-18.06 6.01 7.37 15 12.19 24.49 12.15 3.93-.01 7.55-.86 10.76-2.36 9.13 10.35 22.23 17.05 36.07 17.02 9.08-.02 17.11-2.93 23.42-7.87 4.84 2.95 10.39 4.67 16.12 4.66 7.48-.02 13.89-2.99 18.36-7.79 5.03 1.68 10.29 2.62 15.67 2.61 14.99-.04 27.39-7.23 34.56-18.35 6.18 2.58 12.82 4.03 19.63 4 19.93-.08 35.37-12.57 40.09-30.19 12.39 7.85 26.8 12.46 41.74 12.37 7-.04 13.61-1.13 19.76-3.07 7.55 36.57 42.04 65.47 79.75 65.47 39.77 0 67.89-32.06 62.55-71.58-.08-.6-.24-1.19-.33-1.78 14.64-8.28 23.21-24.63 20.67-43.39-1.64-12.16-7.69-23.19-16.31-31.63 11.93-13.18 18.03-31.53 15.29-51.75z"></path><path fill="#e5e2d6" d="M2061.45 2154.51c.51-5.19.48-10.55-.26-16.07-2.28-16.84-10.33-32.13-21.87-44.03.62-3.01.77-6.22.32-9.54-2.05-15.16-15.27-27.28-30.35-28.58-6.27-23.67-29.18-41.33-53.91-40.46-9.1.32-17.23 3.15-23.9 7.73a34.051 34.051 0 0 0-12.98-8.74c-2.23 3.94-3.43 8.9-3.18 15.12.26 6.63 4.23 13.1 8.02 18.7 4.53 6.7 9.75 12.97 14.73 19.38 6.41 8.26 17.62 21.48 12.82 31.84-5.72 12.35-23.91 10.65-35.55 6.7-16.84-5.72-31.86-16.31-48.46-22.41-7.32-2.69-14.78-4.23-21.95-2.15-7.36 2.13-12.51 7.78-15.45 14.59-3.93 9.09-4.55 21.25-.8 31.81 4.6 2.85 7.12 7.9 7.99 13.68.22 1.45-1.82 2.01-2.78.98-2.46-2.62-4.5-5.55-6.08-8.73-.6-1.22-1.08-2.5-1.57-3.77-.04-.02-.07-.04-.1-.06-7.43-3.35-16.61-.23-23.24 2.15-3.64 1.31-8.14 2.49-10.71 5.33-2.85 3.16-4.59 7.36-8.65 9.26-3.88 1.82-9.01 1.19-13.34.69-6.02-.7-12.02-1.9-18.01-2.77-13.43-1.95-25.84.52-38.08 4.27-11.53 3.52-24.01 9.85-36.71 8.42-11.97-1.34-23.97-1.4-35.57.24-10.53 1.48-20.32 4.82-29.51 9.52-10.82 5.54-20.49 12.8-31.14 18.52-18.07 9.71-38.59 16.35-60.21 14.19-20.24-2.03-39.32-11.87-55.75-25.23-9.99-8.12-18.33-17.75-27.64-26.56-8.5-8.04-18.11-14.92-28.47-19.67.19.26.34.55.53.81-1.91 5.98-2.61 12.59-1.72 19.55 1.17 9.21 4.89 17.7 10.28 24.79-12.58 2.36-20.93 14.12-19.15 28.11 1.34 10.53 8.07 19.6 16.91 24.24-1.82 5.86-2.46 12.34-1.59 19.17 2.32 18.21 14.51 33.78 30.22 41.03-4.7 9.39-6.73 20.57-5.2 32.57 4.16 32.66 32.99 59.1 64.55 59.02 18.39-.05 33.62-9.12 42.39-23.16 11.41 11.65 26.91 19.04 43.21 18.99 15.74-.04 29.01-7.01 37.58-18.06 6.01 7.37 15 12.19 24.49 12.15 3.93-.01 7.55-.86 10.76-2.36 9.13 10.35 22.23 17.05 36.07 17.02 9.07-.02 17.11-2.93 23.42-7.87 4.84 2.95 10.39 4.67 16.12 4.66 7.48-.02 13.89-2.99 18.35-7.79 5.02 1.68 10.29 2.62 15.67 2.61 14.99-.04 27.39-7.23 34.56-18.35 6.18 2.58 12.82 4.03 19.63 4 19.93-.08 35.37-12.57 40.09-30.19 12.39 7.85 26.8 12.46 41.74 12.37 7-.04 13.61-1.13 19.76-3.07 7.55 36.57 42.04 65.47 79.75 65.47 39.77 0 67.89-32.06 62.55-71.58-.08-.6-.24-1.19-.33-1.78 14.64-8.28 23.21-24.63 20.67-43.39-1.64-12.16-7.69-23.19-16.3-31.63 11.93-13.19 18.03-31.54 15.29-51.76-2.67-19.66-13.17-37.3-27.96-49.92z"></path><path fill="#d3d0c2" d="M2061.45 2154.51c.51-5.19.48-10.55-.26-16.07-.17-1.24-.43-2.45-.66-3.67-13.45-1.75-20.67 10.58-23.67 22.09-1.57 6.02-3.13 12.96-2.13 19.45.87 5.67 2.55 11.28 3.17 16.97.44 3.97.64 8.8-2.85 11.12-2.87 1.9-6.64 1.57-10.11.61-10.59-2.94-20.49-10.69-29.44-17.01-8.74-6.17-17.4-13.4-27.8-15.74-9.43-2.12-16.6 1.26-19.4 9.89-2.86 8.83-2.11 19.06-1.12 28.54.98 9.48 2.74 18.93 4.03 28.4.09.7-.53 1.42-1.19 1.51-15.89 2.11-27.77-12.9-42.64-16.5-17.68-4.27-34.54 12.94-39.38 27.34-.39 1.16-1.72 1.47-2.75.54-7.3-6.6-14.79-12.98-22.59-18.92-12.27-9.34-27.45-20.52-42.57-22.15-17.75-1.9-20.48 16.7-20.26 30.73.02 1.12-1.33 2.09-2.4 1.23-16.48-13.08-41.69-8.44-47.22 10.48-.38 1.31-2.14 1.46-2.96.18-5.07-7.92-12.17-14.26-20.72-17.82-29.01-12.1-64.68 5.02-74.07 31.79-.29.82-1 1.27-1.92.99-20.13-6.16-37.46-21.52-58.29-23.82-7.79-.86-15.93-.71-22.08 3.79-5.28 3.86-8.75 9.84-12.73 14.96-1.95 2.5-5.85 5.35-6.5 8.55-.47 2.31.39 4.75-1.13 6.7-3.37 4.3-10.64.54-14.68-1.85-5.38-3.17-10.82-6.92-15.88-10.63-7.1-5.19-14.16-10.47-20.74-16.37-12.3-11.04-22-24.6-25-40.74-1.78-9.58.72-19.04-3.98-28.28-3.11-6.13-8.22-10.59-14.03-13.84-7.81-4.37-16.59-6.8-25.28-7.85a52.81 52.81 0 0 0 7.98 14.9c-12.58 2.36-20.93 14.12-19.15 28.11 1.34 10.53 8.07 19.6 16.91 24.24-1.82 5.86-2.46 12.34-1.59 19.17 2.32 18.21 14.51 33.78 30.22 41.03-4.7 9.39-6.73 20.57-5.2 32.57 4.16 32.66 32.99 59.1 64.55 59.02 18.39-.05 33.62-9.12 42.39-23.16 11.41 11.65 26.91 19.04 43.21 18.99 15.74-.04 29.01-7.01 37.58-18.06 6.01 7.37 15 12.19 24.49 12.15 3.93-.01 7.55-.86 10.76-2.36 9.13 10.35 22.23 17.05 36.07 17.02 9.07-.02 17.11-2.93 23.42-7.87 4.84 2.95 10.39 4.67 16.12 4.66 7.48-.02 13.89-2.99 18.35-7.79 5.02 1.68 10.29 2.62 15.67 2.61 14.99-.04 27.39-7.23 34.56-18.35 6.18 2.58 12.82 4.03 19.63 4 19.93-.08 35.37-12.57 40.09-30.19 12.39 7.85 26.8 12.46 41.74 12.37 7-.04 13.61-1.13 19.76-3.07 7.55 36.57 42.04 65.47 79.75 65.47 39.77 0 67.89-32.06 62.55-71.58-.08-.6-.24-1.19-.33-1.78 14.64-8.28 23.21-24.63 20.67-43.39-1.64-12.16-7.69-23.19-16.3-31.63 11.93-13.19 18.03-31.54 15.29-51.76-2.67-19.66-13.17-37.3-27.96-49.92z"></path><path fill="#ddd5b3" d="M1546.07 2017.14c1.84-1.16 3.86-2.17 5.8-3.27-9-7.33-20.26-11.63-31.98-11.19-13.23.5-24.28 6.91-31.22 16.62-1.23-1.04-2.52-2-3.89-2.83-5.84-7.31-14.73-11.92-24.08-11.57-14.92.56-25.38 13.56-23.4 29.04.15 1.19.39 2.35.68 3.49-15.05 7.44-24.14 24.14-21.71 43.2.32 2.52.88 4.97 1.56 7.37-9.79 4.22-15.84 14.69-14.3 26.78.7 5.52 2.91 10.61 6.1 14.88-1.91 5.98-2.61 12.59-1.72 19.55 1.17 9.21 4.89 17.7 10.28 24.79-9.75 1.83-16.94 9.32-18.86 19.11 4.64 2.19 9.82 3.13 14.62 4.05 6.39 1.21 13.21 2.06 19.31.44 5.54-1.47 8.39-7.16 14.18-8.2 3.77-.67 7.93-.45 11.98.29 6.86-1.31 13.96-1.96 20.66-3.88 5.01-1.44 9.31-4.01 11.86-8.69 3.49-6.41 3.6-14.12 4.53-21.47.79-6.27 2.97-11.19 7.84-14.84 6.15-4.62 14.23-6.44 20-11.58 3.04-2.71 4.58-6.17 5.17-10.37.63-4.46-.53-8.88-.85-13.4-.32-4.57.74-8.99 3.16-12.57 2.13-3.15 4.93-5.66 7.61-8.29 2.96-2.89 5.9-6.02 7.31-10.11 1.49-4.3 1.29-9.16.1-13.78-2.24-8.68-7.3-16.67-8.51-25.55-.53-3.94-.28-8.16 1.42-11.57 1.42-2.78 3.78-4.82 6.35-6.45zM1994.17 2091.46s9.16 41.03-8.58 29.46c0 0-12.83 30.71-29.18 4.73 0 0-23.06 34.44-37.76 8.11 0 0 20.83 12.24 36.78-12.47 0 0 17.94 15.1 28.62-5.93-.01-.01 10.46 11.73 10.12-23.9zM1922.29 2163.62s9.04 40.82-8.47 29.21c0 0-12.66 30.43-28.81 4.52 0 0-22.76 34.07-37.28 7.81 0 0 20.56 12.3 36.31-12.16 0 0 17.71 15.12 28.25-5.71-.01.01 10.33 11.74 10-23.67z" opacity=".85"></path><path fill="#c4ba91" d="M2029.28 2260.89s9.22 41.3-8.63 29.42c0 0-12.91 30.61-29.37 4.3 0 0-23.2 34.19-38 7.56 0 0 20.96 12.6 37.01-11.95 0 0 18.05 15.42 28.8-5.51 0 0 10.53 11.94 10.19-23.82zM1712.36 2195.28c-19.86 21.82-37.32-2.06-37.32-2.06-27.48 24.53-49.39 3.17-49.39 3.17 9.94 36.26 49.24 2.39 49.24 2.39 12.09 36.41 37.64 3.69 37.64 3.69 18.35 19.6 19.95-32.66 19.95-32.66-10.84 42.94-20.12 25.47-20.12 25.47zM1582.36 2324.3c-19.49 21.38-36.63-2.5-36.63-2.5-26.97 23.96-48.48 2.53-48.48 2.53 9.75 36.05 48.33 2.97 48.33 2.97 11.86 36.22 36.95 4.12 36.95 4.12 18.01 19.65 19.58-32.11 19.58-32.11-10.64 42.41-19.75 24.99-19.75 24.99zM1565.45 2198.5s8.46 39.56-7.92 28.16c0 0-11.84 29.3-26.94 4.09 0 0-21.29 32.73-34.87 7.2 0 0 19.23 12.09 33.96-11.41 0 0 16.56 14.79 26.42-5.25 0 0 9.66 11.45 9.35-22.79z" opacity=".85"></path><path fill="#c6b381" d="M1414.76 2163.32c-4.74.84-8.87 3.06-12.08 6.19-8.33-10.93-39.14-52.59-34.4-66.97.38-1.07.99-1.99 1.83-2.75.38-.38.84-.69 1.3-.99 0 0 14.68 10.55 29.51 9.63 1.15 3.82 2.9 7.41 5.27 10.55-1.91 5.96-2.6 12.54-1.76 19.49 1.23 9.25 4.9 17.74 10.33 24.85z"></path><path fill="#ffb281" d="M1476.04 2051.96c-23.07 32.94-29.42-20.14-29.42-20.14s-4.33 36.15-30.1 73.93c-25.8 37.82-48.23 0-48.23 0s-17.24-4.64-38.12-7.95c-10.14-1.6-21.16-2.9-31.5-3.17a48.23 48.23 0 0 1-5.67-.44c-24.92-3.31-17.82-23.55-17.82-23.55.51-.75.99-1.5 1.47-2.25 21.91-34.57 20.44-66.63 29.83-88.78.03-.03.03-.07.03-.07 3.51-8.29 9.66-15.19 17.58-19.49 37.13-20.27 111.54-13.18 160.86 4.81 56.01 20.44 14.23 54.23-8.91 87.1z"></path><path d="M1484.95 1964.86c-49.32-17.99-123.73-25.09-160.86-4.81-5.97 3.24-10.92 7.96-14.51 13.63 1.91 2.59 3.95 5.19 6.4 7.3 2.84 2.45 6.19 2.09 9.53 3.27 5.89 2.08 7.34 9.23 13.05 11.46 6.04 2.35 12.75-.33 18.86-1.05 5.41-.64 10.33.36 15.24 2.65 9.48 4.42 19.23 12.14 23.74 21.8 2.18 4.67 2.71 10.25 2.89 15.34.19 5.35-.45 10.73-4.22 14.81-3.59 3.88-9.75 6.96-8.16 13.25.72 2.85 2.52 5.31 3.66 7.98 1.09 2.57 1.68 5.38 1.31 8.18-.75 5.67-4.87 10.05-9.38 13.19-5.32 3.71-11.4 5.84-17.95 5.1-3.18-.36-6.35-1.31-9.16-2.84-2.9-1.58-5.56-3.6-8.54-5.03-2.33-1.11-4.73-1.78-7.31-1.37-2.15.34-4.25.99-6.34 1.59-3.92 1.12-8.41 2.6-12.5 1.5-4.1-1.1-6.09-5.17-6.07-9.2.03-4.2 2.64-7.69 5.29-10.71 2.66-3.02 6.28-6.27 6.88-10.47 1.63-11.56-12.96-5.93-18.34-3.44-.73.34-1.49.11-2.03-.44-4.39-4.38-13.58 5.33-19 10.22-3.78 3.41-8.25 5.82-13.02 7.47-.74 5.97.28 17.51 18.58 19.94 1.74.24 3.62.41 5.67.44 10.34.27 21.37 1.57 31.5 3.17 20.89 3.31 38.12 7.95 38.12 7.95s22.42 37.82 48.23 0c25.77-37.78 30.1-73.93 30.1-73.93s6.35 53.07 29.42 20.14c23.15-32.86 64.93-66.65 8.92-87.09z" opacity=".1"></path><path fill="#f2f0e7" d="M1567.61 2058.19c16.02-70.66-45.34-72.42-45.34-72.42-9.3-63.11-66.67-70.23-66.67-70.23-1.74-2.08-3.6-3.92-5.52-5.63.15-.74.29-1.49.4-2.26 1.85-13.73-5.43-24.95-16.27-25.09-6.38-.09-12.58 3.7-16.99 9.62-1.19-.56-2.5-.88-3.92-.9-2.74-.04-5.42 1.07-7.76 2.93-.01-.8.02-1.61-.08-2.4-1.26-10.7-9.53-16.66-18.48-13.31-5.27 1.97-9.59 6.74-12.02 12.5-1.09-.03-2.24.15-3.4.58-.62.24-1.22.55-1.8.9-3.91-10.19-13.42-15.19-23.63-11.38-7.24 2.7-13.2 9.23-16.56 17.14-1.5-.04-3.07.2-4.68.8-7.89 2.95-13.45 12.97-12.41 22.4.14 1.26.41 2.43.75 3.53-12.45 14.5-9.62 33.22-9.62 33.22-18.65 30.63 21.33 17.34 21.33 17.34 20.02 29.32 53.91-12.66 58.68-17.34 10.08-9.98-4.51 33.02 47.48 68.72 2.44 1.67 1.46 5.6 1.85 8.23l.05.05c3.75 25.86-13.39 43-13.39 43-10.67 57.32-57.32 23.96-57.32 23.96-.49.29-.93.59-1.32.97a6.19 6.19 0 0 0-1.8 2.78c-5.55 16.56 36.43 69.59 36.43 69.59 9.35 37.35 26.69 2.68 26.69 2.68 3.99 58.68 43.98 2.68 43.98 2.68 17.34 73.29 69.35-21.33 69.35-21.33 63.98 43.99 31.99-101.33 31.99-101.33z"></path><path fill="#ddd5b3" d="M1303.6 1958.21c-1.28 2.1-2.26 3.98-3.02 5.69 6.41-1 12.73-4.32 16.31-8.68 7.38-9.01 2.22-22.28 8.08-32.02 3.21-5.33 8.82-7.55 14.68-8.6 2.9-.52 6.08-.87 8.99-.21 1.49.34 2.74 1.1 3.95 2.02.86.66 1.94 1.96 2.96 2.3 1.43.48 3.6.03 5.07-.26 1.83-.35 3.6-.94 5.33-1.63 3.49-1.39 6.82-3.15 10.25-4.67 5.24-2.31 10.88-4.21 16.51-2.29 4.71 1.61 8.88 4.45 13.56 6.12 1.68.6 3.78 1.29 5.55.66 2.19-.78 2.91-3.48 3.3-5.52.32-1.65 2.4-2.11 3.24-.57.94 1.73 2.38 3.89 4.65 3.49 1.89-.33 3.51-1.98 4.71-3.35 2.86-3.25 5.17-7.39 6.36-11.56.19-.66 1.08-1.25 1.76-1.11 4.1.89 8.33 1.62 12.45.39.65-.19 1.27-.46 1.89-.7-1.84-8.81-7.92-15.03-15.97-15.14-6.38-.09-12.58 3.7-16.99 9.62-1.19-.56-2.5-.88-3.92-.9-2.74-.04-5.42 1.07-7.76 2.93-.01-.8.02-1.61-.08-2.4-1.26-10.7-9.53-16.66-18.48-13.31-5.27 1.97-9.59 6.74-12.02 12.5-1.09-.03-2.24.15-3.4.58-.62.24-1.22.55-1.8.9-3.91-10.19-13.42-15.19-23.63-11.38-7.24 2.7-13.2 9.23-16.56 17.14-1.5-.04-3.07.2-4.68.8-7.89 2.95-13.45 12.97-12.41 22.4.14 1.26.41 2.43.75 3.53-12.45 14.51-9.63 33.23-9.63 33.23z" opacity=".5"></path><path fill="#ddd5b3" d="M1436.9 2066.96c-11.05 27.13-20.79 36.77-20.11 55.62.68 18.85 11.39 10.76 3.26 39.69-8.08 28.93-43.34-19.33-50.55-39.69-3.41-9.59-6.58-15.78-8.52-19.43.39-.39.83-.68 1.31-.97 0 0 46.66 33.36 57.32-23.96 0 0 17.14-17.14 13.39-43l-.05-.05c-.39-2.63-.97-5.41-1.85-8.23 0-.01 16.85 12.89 5.8 40.02z"></path><path fill="#f0e7d9" d="M1339.95 2011.32c0 2.76-5.52 5-12.33 5-6.81 0-12.33-2.24-12.33-5s5.52-5 12.33-5c6.81 0 12.33 2.24 12.33 5z"></path><path fill="#7e4b42" d="M1335.17 2011.32c0 2.76-3.38 5-7.56 5-4.17 0-7.56-2.24-7.56-5s3.38-5 7.56-5 7.56 2.24 7.56 5zM1275.24 2080.18s39.39-18.87 42.79-13.22c0 0-31.31 38.26-42.79 13.22z"></path><path fill="#c4ba91" d="M1444.39 2145.46s9.83 13.76 4.49 19.25c0 0 3.49 8.86-4.49 16.03 0 0 11.95-.84 10.45-11.81 0-.01 6.02-20.36-10.45-23.47zM1530.68 2032.2s10.08 22.59.82 28.9c0 0 2.42 13.72-11.11 21.67 0 0 17.37 2.28 18.42-13.88-.01-.02 14.56-27.43-8.13-36.69z" opacity=".85"></path><path fill="#f2f0e7" d="M1420.35 1941.47s-4.65 17.61 9.16 33.96c13.81 16.36-25.35 33.41-25.33 9.91.01-23.51 16.17-43.87 16.17-43.87z"></path><path fill="#ddd5b3" d="M1426.53 1973.03s58.05 20.07 62.66 53.62c4.61 33.56-11.12 58.14-11.12 58.14s-20.13-1.53-32.77-55.45c-12.63-53.93-27.17-49.73-27.17-49.73l8.4-6.58z"></path><path fill="#c6be9d" d="M1475.24 2067.24s-16.56-10.9-19.67-34.98c-3.11-24.07-18.63-48.23-18.63-48.23s39.21 19.73 40.62 40.29c1.42 20.55-2.32 42.92-2.32 42.92z"></path><path d="M1472.72 2061.22s-13.28-11.1-10.96-25.5c2.31-14.4-2.51-30.97-2.51-30.97s19.23 18.06 16.54 30.15c-2.7 12.07-3.07 26.32-3.07 26.32z" opacity=".1"></path><path fill="#7e4b42" d="M1412.21 1949.63s36.86-48.47 66.22-32.62c49.94 26.96 46.4 95.93-.09 139.1-8.41 7.81-18.13 30.32-27.5 23.41 0 0 55.94-105.27 11.36-103.41-27.11 1.13-48.52 9.73-48.52 9.73l-1.47-36.21z"></path><path fill="#f4f1e4" d="M1414.06 1948.89c5.02-.35 8.56-4.2 11.76-7.69 3.24-3.53 6.48-6.63 10.66-9.05 4.31-2.49 9.17-4.83 13.9-6.36 4.14-1.34 8.78-1.1 13.07-1 4.51.1 9.1.72 13.22 2.63 4.1 1.9 7.42 4.93 10.13 8.52 1.82 2.41 3.85 4.31 6.44 5.9 3.59 2.22 9.74 4.71 11.91.73-5.97-10.29-14.81-19.14-26.72-25.57-27.19-14.68-60.8 25.79-65.62 31.84.42.03.81.08 1.25.05z" opacity=".25"></path><path fill="#6d3b35" d="M1442.1 1967.53s7.27-21.66 3.35-32.71c0 0 12.18 11.99-3.35 32.71zM1480.04 1972.85s14.41-9.77 17.14-18.28c-.01 0 1.84 12.89-17.14 18.28zM1482.64 1982.9s17.36 1.32 24.79-3.64c0 0-6.58 11.24-24.79 3.64zM1481.92 1993.62s16.14 6.52 24.73 4.05c-.01-.01-9.69 8.71-24.73-4.05zM1480.18 2008.34s16.14 6.52 24.73 4.05c0 0-9.68 8.72-24.73-4.05zM1476.1 2025.81s13.99 5.65 21.43 3.51c0 0-8.39 7.55-21.43-3.51zM1471.85 2039.78s10 4.46 15.72 1.8c0 .01-6.83 8.03-15.72-1.8zM1464.73 2052.94s6.88 4.42 11.39 3.1c0 0-5.94 5.15-11.39-3.1zM1458.34 2066.47s4.42 2.84 7.32 1.99c.01 0-3.81 3.31-7.32-1.99zM1471.01 1967.58s9.89-20.6 7.37-32.05c-.01 0 10.6 13.41-7.37 32.05zM1455.58 1968.51s8.88-26.45 4.1-39.95c-.01 0 14.87 14.65-4.1 39.95z"></path><path fill="#f2f0e7" d="M1406.85 1935.15c7.21.77 12.43 7.23 11.67 14.44-.77 7.21-7.23 12.43-14.44 11.67-7.21-.77-12.43-7.23-11.67-14.44.76-7.21 7.23-12.43 14.44-11.67z"></path><path fill="#f2f0e7" d="M1395.57 1962.78c-1.01 9.5 4.64 18.16 13.18 21.38.96 5.65 5.56 10.21 11.54 10.85 7.21.77 13.67-4.46 14.44-11.67.28-2.64-.25-5.18-1.38-7.38 1.65-2.59 2.76-5.58 3.1-8.84 1.2-11.29-6.98-21.42-18.27-22.61-11.29-1.2-21.41 6.98-22.61 18.27z"></path><path fill="#7e4b42" d="M1293.24 2060.28c-.88-5.84-20.07-8.51-23.57 1.68s4.01 14.75 4.01 14.75 20.51-10.12 19.56-16.43z"></path><path fill="#efa189" d="M1327.68 1893.48s-2.07 3.23-6.56 11.04c-4.5 7.81-20.05 14.83-17.77 18.93s25.12 2.43 32.86-6.96c7.76-9.4-1.59-22.14-8.53-23.01z"></path><path fill="#ffb598" d="M1327.68 1893.48s12.2 63.12 24.21 62.17c5.61-.44 3.37-22.09.79-38.89 3.9 20.42 9.6 37.78 15.24 34.48 4.33-2.54 2.19-20.97.29-37.78 2.36 11.41 7.89 34.72 12.81 33.47 8.36-2.12 3.9-25.55.55-41.3 2.63 9.24 9.3 33.02 13.82 31.92 4-.97 6.44-6.44 2.14-26.24-2.5-11.55-.21-11.66-2.38-16.69-1.67-3.88-2.98-8.09-5.87-10.55-13.91-11.86-59.06-.31-61.6 9.41z"></path><path fill="#fff" d="M1395.7 1935.81c-2.18.15-5.12-6.1-4.9-6.85 0 0 5.43-1.42 6.46-1.24 1.04.18.62 7.94-1.56 8.09zM1381.59 1945.34c-2.18.15-5.12-6.1-4.9-6.85 0 0 5.43-1.42 6.46-1.24s.62 7.95-1.56 8.09zM1366.06 1949.72c-2.18.15-5.12-6.1-4.9-6.85 0 0 5.43-1.42 6.46-1.24 1.03.18.62 7.94-1.56 8.09zM1350.7 1953.66c-2.18.15-5.12-6.1-4.9-6.85 0 0 5.43-1.42 6.46-1.24 1.04.18.62 7.94-1.56 8.09z" opacity=".2"></path><path fill="#231f20" d="m1382.24 1908.09-8.16-19.13s5.48-5.79 13.36-1.73c0 0-7.17-9.16-30.18-3.42-23.02 5.74-25.34 9.1-25.34 9.1s7.17-1.74 12.39 2.16c1.17.87 8.21 21.41 7.92 20.09-.29-1.31-3.69-20.39-3.69-20.39l9.76-2.36 8.94 18.49-5.15-19.67 8.4-1.67 11.75 18.53z" opacity=".1"></path><path fill="#c6b381" d="M1196.68 554.74c-3.01 0-5.55 8.19-6.25 19.25-11.06.7-19.25 3.24-19.25 6.25 0 3.02 8.19 5.55 19.25 6.25.7 11.06 3.24 19.25 6.25 19.25 3.02 0 5.55-8.19 6.25-19.25 11.06-.7 19.25-3.23 19.25-6.25 0-3.01-8.19-5.55-19.25-6.25-.7-11.06-3.23-19.25-6.25-19.25z"></path><path fill="#fff" d="M2302.38 1513.07c-3.25 0-5.98 8.83-6.74 20.76-11.93.76-20.76 3.49-20.76 6.74s8.83 5.98 20.76 6.74c.76 11.93 3.49 20.76 6.74 20.76s5.98-8.83 6.74-20.76c11.93-.76 20.76-3.49 20.76-6.74s-8.83-5.98-20.76-6.74c-.76-11.93-3.49-20.76-6.74-20.76zM1010.03 1053.27c-3.29 0-6.05 8.94-6.82 21.02-12.07.77-21.01 3.53-21.01 6.82 0 3.29 8.94 6.05 21.01 6.82.77 12.07 3.53 21.01 6.82 21.01 3.29 0 6.05-8.94 6.82-21.01 12.07-.77 21.01-3.53 21.01-6.82 0-3.29-8.94-6.05-21.01-6.82-.76-12.08-3.52-21.02-6.82-21.02z"></path><path fill="#d8c899" d="M361.84 1654.68c-3.29 0-6.05 8.94-6.82 21.02-12.07.77-21.01 3.53-21.01 6.82 0 3.29 8.94 6.05 21.01 6.82.77 12.07 3.53 21.01 6.82 21.01 3.29 0 6.05-8.94 6.82-21.01 12.07-.77 21.01-3.53 21.01-6.82 0-3.29-8.94-6.05-21.01-6.82-.77-12.08-3.53-21.02-6.82-21.02zM2510.45 1338.78l-16.03-6.7a3.5 3.5 0 0 1-1.89-1.89l-6.69-16.03c-1.21-2.89-5.3-2.89-6.5 0l-6.7 16.03c-.36.85-1.04 1.54-1.89 1.89l-16.04 6.7c-2.89 1.2-2.89 5.3 0 6.5l16.04 6.7c.86.36 1.54 1.04 1.89 1.9l6.7 16.03c1.2 2.89 5.3 2.89 6.5 0l6.69-16.03c.36-.86 1.04-1.54 1.89-1.9l16.03-6.7c2.89-1.2 2.89-5.29 0-6.5z"></path><path fill="#fff" d="m1907.07 743.29-14.67-6.13c-.78-.33-1.41-.95-1.73-1.73l-6.13-14.67c-1.1-2.64-4.85-2.64-5.95 0l-6.13 14.67c-.33.78-.95 1.41-1.73 1.73l-14.68 6.13c-2.64 1.1-2.64 4.85 0 5.95l14.68 6.13c.78.33 1.41.95 1.73 1.73l6.13 14.68c1.1 2.64 4.85 2.64 5.95 0l6.13-14.68c.33-.78.95-1.41 1.73-1.73l14.67-6.13c2.64-1.11 2.64-4.85 0-5.95z"></path><path fill="#c6b381" d="M2252.25 2507.1s-32.79-33.08-15.5-73.21c17.29-40.13 68.59-33.49 68.59-33.49s-14.77-45.49 42.2-63.8c56.97-18.31 87.5 41.71 87.5 41.71s3.13-29.93 29.21-27.67c26.08 2.25 16.08 38.57 5.35 46.22 0 0 29.64-27.24 47.92-3.63 18.29 23.61-27.92 27.69-27.92 27.69s41.09-6.4 54.24 18.12c13.15 24.52-9.57 36.39-9.57 36.39s30.42-11.84 38.48 4.02c8.06 15.86-41.61 26.76-41.61 26.76l-278.89.89z"></path><path fill="#8c7750" d="M2256.83 2446.49c15.57-22.76 71.78-26.29 71.78-26.29s-14.8-28.76 5.48-47.99 73.72-8.45 89 18.84c0 0 18-10.46 30.77-8.64 12.76 1.81 11.76 30.78 11.76 30.78s4.02-14.03 20.46-8.69-1.69 23.47-1.69 23.47 26.83-.53 39.04 16.21c12.22 16.74-7.21 41.23-7.21 41.23s36.61-13.58 41.49 12.19c10.26-4.62 18.76-10.86 15.05-18.15-8.06-15.86-38.48-4.02-38.48-4.02s22.73-11.87 9.57-36.39c-11.13-20.75-42.29-19.35-51.58-18.44 9.54-1.31 40.87-7.23 25.27-27.37-15.84-20.45-40.18-2.76-46.41 2.35 10.08-9.73 17.99-42.78-6.86-44.93-26.08-2.26-29.21 27.67-29.21 27.67s-30.53-60.02-87.5-41.71c-56.97 18.31-42.2 63.8-42.2 63.8s-51.3-6.64-68.59 33.49c-17.29 40.13 15.5 73.21 15.5 73.21s-11.01-37.86 4.56-60.62z" opacity=".2"></path><path fill="#c6b381" d="M767.66 2533.63s37.74-38.08 17.84-84.27c-19.9-46.19-78.94-38.54-78.94-38.54s17-52.35-48.58-73.43c-65.58-21.07-100.71 48.01-100.71 48.01s-3.6-34.44-33.62-31.85c-30.02 2.59-18.51 44.39-6.16 53.19 0 0-34.11-31.35-55.16-4.18-21.05 27.17 32.14 31.87 32.14 31.87s-47.3-7.36-62.43 20.85c-15.14 28.22 11.02 41.89 11.02 41.89s-35.02-13.63-44.29 4.63c-9.27 18.26 47.89 30.8 47.89 30.8l321 1.03z"></path><path fill="#8c7750" d="M762.38 2463.87c-17.92-26.19-82.62-30.26-82.62-30.26s17.04-33.1-6.31-55.23c-23.35-22.13-84.85-9.72-102.43 21.68 0 0-20.72-12.04-35.41-9.95-14.69 2.09-13.53 35.43-13.53 35.43s-4.63-16.15-23.54-10c-18.92 6.15 1.94 27.01 1.94 27.01s-30.88-.6-44.94 18.66c-14.06 19.26 8.3 47.46 8.3 47.46s-42.14-15.63-47.75 14.03c-11.81-5.31-21.59-12.49-17.33-20.89 9.27-18.26 44.29-4.63 44.29-4.63s-26.16-13.67-11.02-41.89c12.81-23.89 48.67-22.27 59.37-21.22-10.98-1.51-47.04-8.33-29.08-31.51 18.23-23.54 46.24-3.17 53.42 2.7-11.61-11.2-20.71-49.24 7.9-51.71 30.02-2.6 33.62 31.85 33.62 31.85s35.14-69.08 100.71-48.01c65.57 21.08 48.58 73.43 48.58 73.43s59.04-7.65 78.94 38.54-17.84 84.27-17.84 84.27 12.65-43.57-5.27-69.76z" opacity=".2"></path><path fill="#c6b381" d="M2142.66 2527.84s-26.53-26.77-12.54-59.23c13.99-32.47 55.49-27.09 55.49-27.09s-11.95-36.8 34.15-51.62c46.1-14.81 70.79 33.75 70.79 33.75s2.53-24.21 23.63-22.39c21.1 1.82 13.01 31.2 4.33 37.39 0 0 23.98-22.04 38.77-2.94 14.8 19.1-22.59 22.4-22.59 22.4s33.25-5.17 43.89 14.66c10.64 19.84-7.75 29.44-7.75 29.44s24.61-9.58 31.13 3.25-33.67 21.65-33.67 21.65l-225.63.73z"></path><path fill="#8c7750" d="M2146.36 2478.8c12.6-18.41 58.07-21.27 58.07-21.27s-11.98-23.27 4.43-38.83c16.41-15.56 59.64-6.84 72 15.24 0 0 14.56-8.46 24.89-6.99 10.33 1.47 9.51 24.91 9.51 24.91s3.25-11.35 16.55-7.03c13.3 4.32-1.37 18.99-1.37 18.99s21.7-.43 31.59 13.12c9.89 13.54-5.83 33.36-5.83 33.36s29.62-10.98 33.57 9.86c8.3-3.74 15.18-8.78 12.18-14.68-6.52-12.83-31.13-3.25-31.13-3.25s18.39-9.61 7.75-29.44c-9.01-16.79-34.21-15.66-41.73-14.92 7.72-1.06 33.07-5.85 20.44-22.15-12.81-16.54-32.51-2.23-37.55 1.9 8.16-7.87 14.56-34.61-5.55-36.35-21.1-1.82-23.63 22.39-23.63 22.39s-24.7-48.56-70.79-33.75c-46.09 14.82-34.15 51.62-34.15 51.62s-41.5-5.37-55.49 27.09c-13.99 32.47 12.54 59.23 12.54 59.23s-8.89-30.64 3.7-49.05z" opacity=".2"></path></svg>